<svg id="Layer_1" data-name="Layer 1" xmlns="http://www.w3.org/2000/svg" viewBox="0 0 18.15 18.17"><defs><style>.cls-1{fill:#fff;}</style></defs><title>bootstrap</title><path class="cls-1" d="M1.39,11.1c0-2,0-4,0-6A3,3,0,0,1,4.51,2H16.45a3,3,0,0,1,3.08,3.05q0,6,0,12.06a2.92,2.92,0,0,1-3.06,3.05q-6,0-12,0a2.93,2.93,0,0,1-3.08-3.09C1.38,15.08,1.39,13.09,1.39,11.1Zm11.73-.24a3.94,3.94,0,0,1,.37-.28,2.36,2.36,0,0,0,1-2.61,2.16,2.16,0,0,0-1.72-1.79A4.15,4.15,0,0,0,11.67,6C10.11,6,8.55,6,7,6c-.47,0-.66.14-.66.63,0,3.09,0,6.17,0,9.26,0,.47.16.65.65.65,1.48,0,3,0,4.44,0a6.88,6.88,0,0,0,2.1-.47A2.31,2.31,0,0,0,15,13.83,2.63,2.63,0,0,0,13.12,10.86Z" transform="translate(-1.39 -2)"/><path class="cls-1" d="M10,15.12c-1.82,0-1.82,0-1.82-1.84,0-1.58,0-1.58,1.57-1.58.62,0,1.25,0,1.87,0a1.53,1.53,0,0,1,1.64,1.54A1.54,1.54,0,0,1,11.73,15C11.15,15.09,10.56,15.1,10,15.12Z" transform="translate(-1.39 -2)"/><path class="cls-1" d="M9.94,10.43H8.66c-.33,0-.51-.12-.51-.47,0-.69,0-1.37,0-2.05,0-.34.14-.5.49-.5.91,0,1.83,0,2.74,0a1.28,1.28,0,0,1,1.38,1.5,1.43,1.43,0,0,1-1.48,1.48c-.44,0-.89,0-1.34,0Z" transform="translate(-1.39 -2)"/></svg>