<svg id="Layer_1" data-name="Layer 1" xmlns="http://www.w3.org/2000/svg" viewBox="0 0 16.02 18.52"><defs><style>.cls-1{fill:none;stroke:#fff;stroke-miterlimit:10;stroke-width:0.5px;}</style></defs><title>front10</title><polygon class="cls-1" points="11.31 3.52 7.99 1.6 4.66 3.52 4.66 7.35 7.99 9.27 11.31 7.35 11.31 3.52"/><polygon class="cls-1" points="8.02 9.32 4.7 7.4 1.37 9.32 1.37 13.16 4.7 15.07 8.02 13.16 8.02 9.32"/><polygon class="cls-1" points="14.66 9.3 11.34 7.38 8.01 9.3 8.01 13.14 11.34 15.06 14.66 13.14 14.66 9.3"/><polygon class="cls-1" points="14.67 5.4 8.03 1.56 1.37 5.43 1.35 13.12 7.99 16.96 14.65 13.09 14.67 5.4"/><polygon class="cls-1" points="15.77 4.76 8.03 0.29 0.27 4.79 0.25 13.76 7.99 18.23 15.75 13.73 15.77 4.76"/></svg>