<svg id="Layer_1" data-name="Layer 1" xmlns="http://www.w3.org/2000/svg" viewBox="0 0 160.62 54.74"><defs><style>.cls-1{fill:#fff;}</style></defs><title>logo</title><path class="cls-1" d="M36.14,39.16A1.63,1.63,0,0,0,36,40,10.52,10.52,0,0,0,36,41.09a11,11,0,0,1,.06,1.13,2,2,0,0,1-.25,1,11.24,11.24,0,0,1-.2,1.16,3.15,3.15,0,0,1-.45,1.09.66.66,0,0,1,.07.74,1.16,1.16,0,0,0,0,.93.91.91,0,0,0-.45.33,4.84,4.84,0,0,0-.32.57A.52.52,0,0,0,34,48a2.14,2.14,0,0,1-.39.16c.13.35.11.59-.06.74a4.32,4.32,0,0,1-.58.42l-.64.39a1,1,0,0,0-.45.57,1.57,1.57,0,0,0-.58.42.56.56,0,0,1-.65.16,1.07,1.07,0,0,1-.73.55c-.33.06-.44.22-.36.48a6.87,6.87,0,0,1-1.06.42.91.91,0,0,0-.67.74.38.38,0,0,0-.36-.07.34.34,0,0,1-.35-.06.8.8,0,0,1-.39.39c-.21.12-.36.08-.45-.13-.34.21-.69.41-1.06.61a1.11,1.11,0,0,1-1.06,0,2.18,2.18,0,0,1-1.54.42,3,3,0,0,0-1.61.29,5.67,5.67,0,0,0-1.51-.36A15.34,15.34,0,0,0,18,54.08a17.1,17.1,0,0,1-2.54-.74,11,11,0,0,0-2.22-.61,2.6,2.6,0,0,0-.58-.81,5.92,5.92,0,0,1-.64-.67c-.47-.26-1-.54-1.45-.84a2,2,0,0,1-.93-1.15,2.17,2.17,0,0,0-1.06-.36,2.62,2.62,0,0,0-1.09.19,3.81,3.81,0,0,0-1,.62,2.45,2.45,0,0,0-.64.77c-.22,0-.34,0-.39.09s-.17.14-.38.1a9.32,9.32,0,0,0-.58,1.45,1.57,1.57,0,0,1-1.09,1.06A.48.48,0,0,1,3,52.6c0-.3.09-.58.13-.84a.78.78,0,0,1-.29-.8,1.28,1.28,0,0,0-.1-.87,1.5,1.5,0,0,0,0-.8.9.9,0,0,1,0-.55.76.76,0,0,0-.41-.13.72.72,0,0,1-.42-.13A4.92,4.92,0,0,1,2,47.07a1.71,1.71,0,0,1,.68-1.22.89.89,0,0,0-.1-.64,2,2,0,0,0-.35-.45,2.25,2.25,0,0,1-.35-.45.88.88,0,0,1,0-.71.47.47,0,0,0,.39-.16.39.39,0,0,1,.32-.16,4.51,4.51,0,0,1,0-1.61,1.54,1.54,0,0,0-.35-1.35c-.3,0-.46,0-.48-.29a.49.49,0,0,1,.16-.48,3.08,3.08,0,0,1,.29-.74l.29-.55c.08-.17.16-.34.22-.51a.74.74,0,0,0,0-.58,1.67,1.67,0,0,0,.39-1,8.9,8.9,0,0,1,.19-1.28,2.22,2.22,0,0,0,0-1.1,2.69,2.69,0,0,1-.1-1.15c.43-.13.73-.07.9.19a2.79,2.79,0,0,1,.38,1c.09.39.19.77.29,1.13a1.1,1.1,0,0,0,.68.74c.08.13.1.24,0,.32a.4.4,0,0,0,0,.39,2.9,2.9,0,0,0-.06,1,4.84,4.84,0,0,0,.19.58c.22,0,.36,0,.42-.07a.64.64,0,0,1,.29-.19c.21.39.29.63.22.74a.52.52,0,0,1-.29.23,4.61,4.61,0,0,0-.12.86,3.41,3.41,0,0,0,.25,1c.22.64.41,1.29.58,1.93a5.92,5.92,0,0,0,.71,1.67,2.36,2.36,0,0,1,1.28.22.6.6,0,0,1,.2.58,3,3,0,0,1-.26.74,2.23,2.23,0,0,1-.39.58A4.81,4.81,0,0,0,9.62,48.1a12.74,12.74,0,0,1,1.51,1.73,1.48,1.48,0,0,0,.71.45,2.16,2.16,0,0,1,.64.26,7.65,7.65,0,0,1,1.23.93,2.59,2.59,0,0,0,1.47.68,6.73,6.73,0,0,1,1.77.51,6.73,6.73,0,0,0,1.9.52c.38,0,.78.09,1.19.16a8,8,0,0,0,1.19.09,13.14,13.14,0,0,0,4.4-1,40,40,0,0,0,3.69-1.74l-.12-.51a1.67,1.67,0,0,1,0-.71c1.28-1,1.92-2.78,1.92-5.27a5.14,5.14,0,0,1-.51.45,1.06,1.06,0,0,1-.77.13c-.13-.47-.28-.71-.45-.71q.06-.31.51-.51c.26-.26.32-.44.2-.55s-.13-.26,0-.48a1.43,1.43,0,0,0,.16-.87,1,1,0,0,0-.42-.86,1,1,0,0,1-.61.35,4.67,4.67,0,0,0-.87.29c-.26-.26-.35-.43-.29-.52a.17.17,0,0,0,0-.25,1.86,1.86,0,0,1,.26-.23.61.61,0,0,1,.45,0,2.26,2.26,0,0,1,.13-.48,3.82,3.82,0,0,0,.12-.42c-.12-.3-.29-.44-.48-.42a1.32,1.32,0,0,0-.61.26c-.21.15-.43.31-.64.48a1.62,1.62,0,0,1-.58.32.84.84,0,0,1-1-.41c-.21-.37-.1-.68.33-.94s.45-.35.32-.42-.13-.13,0-.22c.51-.17.78-.19.8-.06s.08.19.16.19,0-.23-.13-.29a.91.91,0,0,1-.38-.23,2.43,2.43,0,0,0-1,.39,1.41,1.41,0,0,1-1,.26c-.56.13-.88.1-1-.07a.79.79,0,0,1,0-.61,1.75,1.75,0,0,1,.32-.64,1.33,1.33,0,0,1,.55-.42c-.13-.43-.3-.59-.52-.48a4.46,4.46,0,0,1-.77.29,1.65,1.65,0,0,1-.83.06,1.6,1.6,0,0,1-.78-.32c-.08-.34,0-.55.2-.64a.79.79,0,0,1,.64,0c0-.26,0-.42-.19-.48a.53.53,0,0,1-.32-.42,1.21,1.21,0,0,0-.84.29,1,1,0,0,1-.64.29.62.62,0,0,1-.32.32.53.53,0,0,1-.52,0,1,1,0,0,1-.71.9A1.14,1.14,0,0,1,18,36.34a3.38,3.38,0,0,1,.13-.84,1.28,1.28,0,0,0,.55-.19,1.8,1.8,0,0,1,.54-.26,2,2,0,0,0,.74-.13.11.11,0,0,1,.1-.06.4.4,0,0,1-.32-.29,1,1,0,0,0-.26-.42.85.85,0,0,1-.71,0,.87.87,0,0,0-.77,0,2.25,2.25,0,0,0-.45-.35,1,1,0,0,1-.38-.42A3.25,3.25,0,0,1,15.63,33a4.43,4.43,0,0,0-1.54-.49,1.11,1.11,0,0,1-.84-.25,1.3,1.3,0,0,0-1-.26,1.22,1.22,0,0,0-.64.29,1.32,1.32,0,0,1-.71.29,3.54,3.54,0,0,1-.35-.26l-.36-.26-.77-1a1.38,1.38,0,0,0-.38.25.89.89,0,0,1-.39.2,1.09,1.09,0,0,0-.29-.23.59.59,0,0,0-.48,0c-.21-.81-.48-1.19-.8-1.12a2.82,2.82,0,0,0-1,.42l-1.06.64a1,1,0,0,1-1.06,0A3.6,3.6,0,0,1,4.55,30c.19-.23.46-.24.8,0-.17-.73-.4-1.08-.68-1.06a2.09,2.09,0,0,0-.86.29c-.3.17-.6.35-.9.55a2.25,2.25,0,0,1-.9.35.85.85,0,0,1-.65-.71A1.63,1.63,0,0,1,2,28.85q.42-.23.81-.48a1.71,1.71,0,0,0,.58-.62.9.9,0,0,0-.07-.86l-.8.25a.83.83,0,0,0-.55.45,1.16,1.16,0,0,0-.38,0,.59.59,0,0,1-.32,0,3.05,3.05,0,0,1,.12-.41.51.51,0,0,0-.06-.42A2,2,0,0,0,2.2,26a1,1,0,0,0-.06-1.19,4.47,4.47,0,0,1-.52-1,3,3,0,0,1-.13-.9.92.92,0,0,0-.51.19q-.13.14-.39,0,.71-.51.45-.51c-.17,0-.25-.07-.25-.2.25-.17.35-.3.29-.38s0-.17.09-.26a.79.79,0,0,0-.48-.1.55.55,0,0,1-.35,0c.12-.51.1-.77-.07-.77A2.08,2.08,0,0,1,.08,20a1.73,1.73,0,0,0,.06-.58,1.18,1.18,0,0,0,.65-.64,12.94,12.94,0,0,1,.29-2.7,5.53,5.53,0,0,1,1-2.32c.22-.6.44-1.21.68-1.83a10.69,10.69,0,0,1,.8-1.7,1.29,1.29,0,0,1,.19-.74A2.74,2.74,0,0,1,4.19,9a4.45,4.45,0,0,0,.48-.49A1.22,1.22,0,0,0,5,7.86c.69.13,1.1.08,1.22-.16A1.1,1.1,0,0,1,7,7.22,5.31,5.31,0,0,1,8.56,6a10.42,10.42,0,0,1,2.12-.77,22.83,22.83,0,0,1,2.41-.45,18.51,18.51,0,0,1,2.41-.16h1a.59.59,0,0,1,.64.45,8.22,8.22,0,0,0,2,.35,1.8,1.8,0,0,1,1.45.87,1.73,1.73,0,0,1,1.61,1.16c.34.12.68.23,1,.32a2,2,0,0,1,.9.45.84.84,0,0,0,.39.64,1.79,1.79,0,0,0,.77.23,4.19,4.19,0,0,0,.93,0A4.29,4.29,0,0,0,27,8.89,3.38,3.38,0,0,0,28.62,8c.42-.45.81-.85,1.15-1.19A1.41,1.41,0,0,1,30,5.61a2.86,2.86,0,0,0,.52-1.22,1.08,1.08,0,0,1,.86.19,1.13,1.13,0,0,1,.36.71,2,2,0,0,1-.07.87,1.13,1.13,0,0,1-.38.61,2,2,0,0,1,.06.9,3.86,3.86,0,0,1-.19.9,5.39,5.39,0,0,1,.16,1.8,2.44,2.44,0,0,0,.35,1.48,9.48,9.48,0,0,0,0,1.31,2.07,2.07,0,0,0,.42,1.19,5.7,5.7,0,0,0,0,2.9,4.64,4.64,0,0,1,.16,2.18,2.23,2.23,0,0,1-.48.77,1,1,0,0,1-1,.26,9.59,9.59,0,0,0-.9-2,6.05,6.05,0,0,0-1.48-1.67,1.75,1.75,0,0,1,0-.74.81.81,0,0,0,0-.61,1.27,1.27,0,0,1-.71-1,.76.76,0,0,0-.51.06c-.17.09-.32,0-.45-.19.13-.21.17-.36.13-.45l-.19-.32c-.13-.09-.26-.18-.39-.29s-.15-.2-.07-.29a1.17,1.17,0,0,1-.51-.39,1.24,1.24,0,0,0-.45-.38,1.7,1.7,0,0,0-.61-1.48,1.77,1.77,0,0,1-.74-1.09,4.67,4.67,0,0,1-1.48-.84A4.42,4.42,0,0,0,21,7.93a7.92,7.92,0,0,0-1-.42,3.29,3.29,0,0,1-.61-.26c-.19-.11-.38-.21-.55-.32a3,3,0,0,0-.64-.29,8.27,8.27,0,0,1-1.7-.29q-.81-.22-1.71-.42a7.24,7.24,0,0,1-1.64.36,6.35,6.35,0,0,1-1.7,0q-.51.27-.87.42A7.12,7.12,0,0,0,9.85,7c.34.43.43.67.26.73a1.45,1.45,0,0,1-.71,0,1.08,1.08,0,0,1-.71,0c-.43.21-.61.35-.54.41s0,.12,0,.17a.69.69,0,0,0-.58.25l-.41.58a3.49,3.49,0,0,1-.49.58,1.17,1.17,0,0,1-.7.32,1,1,0,0,1-.07.42A1.25,1.25,0,0,0,5.8,11c.38.21.5.4.35.58s-.18.32-.09.44a1,1,0,0,1-.52.52,4.33,4.33,0,0,1,.26,1.06,2.15,2.15,0,0,0,.38,1c-.17.08-.19.28-.06.58a.63.63,0,0,0,.58.44,1.19,1.19,0,0,0,.58.84,3.8,3.8,0,0,0,1,.39.8.8,0,0,1-.23.45,3.74,3.74,0,0,0-.29.25.7.7,0,0,0,.64.58,4.72,4.72,0,0,1,1,.26,3.28,3.28,0,0,0,.74,1.12,1.86,1.86,0,0,0,1,.36,10,10,0,0,0,2.41,1.47l2.73,1.23a4.63,4.63,0,0,1,1.16.13,6.73,6.73,0,0,1,1,.32l.94.35a2.76,2.76,0,0,0,1,.16c.69.09,1.42.2,2.22.35a16.35,16.35,0,0,0,2,.29,6.27,6.27,0,0,0,1.83.74,3.66,3.66,0,0,0,2,0c.43.18.66.2.68.07s.12-.17.29-.13c-.13.47-.13.67,0,.58s.21,0,.26.13c.21-.47.24-.67.09-.58s-.18,0-.09-.19.38,0,.51.22.3.23.51,0c-.08.6-.18.91-.29.93a.57.57,0,0,0-.28.16,1.4,1.4,0,0,0,.7.64c.3.13.62.26,1,.39A3.79,3.79,0,0,0,33,28.59a1.86,1.86,0,0,1,.74,1.58c.25.47.49.94.7,1.41a7.61,7.61,0,0,1,.52,1.61,1.76,1.76,0,0,1,.29,1,.76.76,0,0,0,.61.81.77.77,0,0,0-.13.57,1.32,1.32,0,0,1,.06.39A16.14,16.14,0,0,0,36,37.72,6.8,6.8,0,0,1,36.14,39.16ZM5.93,16.73c-.35-.26-.5-.45-.45-.58a.76.76,0,0,0-.07-.51,2.42,2.42,0,0,0-1.25,1,2.47,2.47,0,0,1-1.25,1c0,.43-.11.67-.33.73a3.76,3.76,0,0,0-.57.23,1,1,0,0,0-.39.32c-.08.13-.06.32.07.58a3.7,3.7,0,0,0,.86-.32,3.52,3.52,0,0,1,.87-.32,1.75,1.75,0,0,0,.52-.49.73.73,0,0,1,.19-.28,3.89,3.89,0,0,1,1.12-.49A.92.92,0,0,0,5.93,16.73ZM4.64,14.61a1.31,1.31,0,0,1-.83.19,1.57,1.57,0,0,0-.84.84,1,1,0,0,0-.8.9,4.9,4.9,0,0,1-.36,1.28,1.52,1.52,0,0,0,1-1.09.74.74,0,0,0,.48-.13,1.59,1.59,0,0,0,.29-.29L3.81,16a.68.68,0,0,1,.38-.22,1.32,1.32,0,0,1,.42-.84C4.8,14.8,4.81,14.7,4.64,14.61Zm6.82,6.75-.58-.16c-.22-.07-.43-.14-.65-.23-.42.35-.92.71-1.47,1.1a1.86,1.86,0,0,1-1.55.38,3.1,3.1,0,0,1,1.16-.8l1-.36c-.13-.16-.1-.28.1-.35s.2-.2,0-.42c-.48.09-.71.07-.71-.06a.89.89,0,0,0-.06-.61,1.16,1.16,0,0,0-.45-.29,1.07,1.07,0,0,0-.39.32c0,.09-.19.13-.45.13-.39.34-.58.46-.58.35s-.06-.14-.19-.09-.14,0,0-.13a.9.9,0,0,1,.38-.29,5.12,5.12,0,0,0,.48-.23.77.77,0,0,0,.39-.45c-.13-.12-.25-.17-.35-.12a.7.7,0,0,0-.29.19,1.48,1.48,0,0,1-.29.22.3.3,0,0,1-.36,0,3.49,3.49,0,0,0-.83.68.54.54,0,0,1-.84,0,7,7,0,0,0,.9-.55.3.3,0,0,1,.39,0c.26-.26.45-.34.58-.26s.23.09.32,0a1.54,1.54,0,0,1,0-.7A.28.28,0,0,0,7,18.21c0,.13-.32.19-.84.19a1.4,1.4,0,0,1-.32.52,4.48,4.48,0,0,1-.45.38c.09-.3.16-.55.23-.77s.22-.26.48-.13c0-.21,0-.32.29-.32s.31-.13.22-.38A1.21,1.21,0,0,0,5.48,18a1.5,1.5,0,0,1-1.1.45,2,2,0,0,1-.54.67A1.79,1.79,0,0,1,3,19.5c0,.3-.28.42-.71.38a3.76,3.76,0,0,0,.42.58c.15.17,0,.26-.54.26a.66.66,0,0,0,.12.48c.09.06.07.25-.06.55a2.52,2.52,0,0,0,.35.19.81.81,0,0,1,.29.19,2.28,2.28,0,0,0-.64,1.16,3.3,3.3,0,0,0,.45.29l.45.22A3.8,3.8,0,0,1,4,23.06a2,2,0,0,1,1.19-.22,1.48,1.48,0,0,1,.41-.55,1,1,0,0,1,.55-.16.37.37,0,0,1,.29-.45,1.22,1.22,0,0,0,.48-.26c.09-.25.19-.36.32-.32l.45.19a2.92,2.92,0,0,0,.81-.35c.15-.11.26-.12.35,0a2.18,2.18,0,0,0-.9.48,1,1,0,0,1-1,.23,1.71,1.71,0,0,1-.71.38c0,.39,0,.57-.19.55a5.22,5.22,0,0,0-.58,0,.56.56,0,0,1-.39.48,1.16,1.16,0,0,0-.51.29,1.07,1.07,0,0,1-.36.32,1,1,0,0,1-.73.13.5.5,0,0,1-.29.51.59.59,0,0,0-.36.45c.17,0,.25,0,.23.23a.46.46,0,0,0,.09.41,4.92,4.92,0,0,1,2.06-1.09.5.5,0,0,1,.13-.58,1.58,1.58,0,0,1,.58-.38A1.93,1.93,0,0,1,5,24.64a7.49,7.49,0,0,0-1.09.64c.21.26.34.34.38.26s.17-.11.39-.07c.38-.3.61-.48.67-.54l.23-.23c-.22.39-.43.74-.65,1.06a.83.83,0,0,1-.83.42q-.13.26,0,.39a1.36,1.36,0,0,1,.16.32q1.41-.78,2.28-1.35a20,20,0,0,0,1.7-1.29l.45-.35A.64.64,0,0,1,9,23.77a.87.87,0,0,0,.32-.13.31.31,0,0,0,.16-.29,1,1,0,0,1-.58,0,.35.35,0,0,0-.38,0L8,23.87a.88.88,0,0,1-.77.19,15.19,15.19,0,0,1,1.55-1.13,5.23,5.23,0,0,1,1.92-.67c.22.13.33.1.33-.1a.42.42,0,0,1,.32-.41ZM4.71,14.29a4.42,4.42,0,0,0,.09-.61A1.56,1.56,0,0,0,4.71,13a5.36,5.36,0,0,0-1.1.84,10.35,10.35,0,0,0-.9,1,.41.41,0,0,0,.36.06.37.37,0,0,1,.35.07c0-.39.08-.57.23-.55l.41.06a.73.73,0,0,0,.36,0A.48.48,0,0,0,4.71,14.29Zm-.33,5.53c0,.17-.11.26-.35.29a1.24,1.24,0,0,1-.54,0,.39.39,0,0,1,.45-.28Zm-.12,2.63a.36.36,0,0,1-.32.29,1,1,0,0,0-.45.16,3,3,0,0,0,.32-.25A.86.86,0,0,1,4.26,22.45ZM4,41.41c-.26-.12-.38-.26-.35-.41s0-.21-.16-.16Q3.67,41.41,4,41.41Zm3,5c-.69-.39-1.18-.32-1.48.19l-.45-.45A.86.86,0,0,1,5,45.91a1.42,1.42,0,0,1,.45.1.55.55,0,0,0,.39,0c.34-.17.52-.34.55-.51s.16-.22.41-.13c0-.34-.09-.7-.16-1.06a2.28,2.28,0,0,0-.42-1l-.54-.19L5.29,43l-.39-.13a.38.38,0,0,1-.26-.25c.34,0,.55,0,.61.06a.34.34,0,0,0,.29.13A1.21,1.21,0,0,0,5.61,42a.79.79,0,0,1,0-.64c-.22-.09-.3-.28-.26-.58s-.06-.47-.32-.51c-.13.13-.27.25-.42.38a.72.72,0,0,1-.61.13c.3.47.3.71,0,.71-.17.64-.29,1.08-.35,1.32a1.9,1.9,0,0,0,0,.8c.26-.09.41-.05.45.1s.13.18.26.09A1.31,1.31,0,0,1,5,43.41a.5.5,0,0,0,.35-.13,1.83,1.83,0,0,1-.13.71,2.62,2.62,0,0,1-.39.64l-.57.51A4.09,4.09,0,0,1,4.1,46c-.07.15-.23.22-.49.22.43.26.69.31.77.13a.26.26,0,0,1,.39-.13,4.6,4.6,0,0,0-.13,1c-.34.39-.58.56-.7.52A2.48,2.48,0,0,0,3.84,49a7.63,7.63,0,0,1,.1,1.25.52.52,0,0,0,.64-.39A.77.77,0,0,1,5,49.26a.89.89,0,0,1,.13-.52,1.28,1.28,0,0,1,.29-.32,3.58,3.58,0,0,0,.28-.26.59.59,0,0,0,.13-.45,1.1,1.1,0,0,0,.55-.64A1.07,1.07,0,0,1,7,46.43Zm-2.31-8c0-.52-.22-.68-.52-.48a1,1,0,0,0-.51.73c.51,0,.77-.06.77-.19S4.54,38.37,4.71,38.46ZM5,40.06c-.08-.21-.15-.36-.19-.45a1.14,1.14,0,0,1-.06-.45c-.39.22-.58.28-.58.2s0-.11-.13-.07c-.13.3-.08.49.16.55s.29.2.16.42Zm.45-18.77a1.08,1.08,0,0,1-.58.55A1.28,1.28,0,0,1,4,22a3.06,3.06,0,0,0,.77-.38A2.6,2.6,0,0,1,5.41,21.29Zm1-.38a5.62,5.62,0,0,1-.77.13C6.18,20.74,6.44,20.7,6.44,20.91Zm8,2a2.25,2.25,0,0,0-.74-.29,1,1,0,0,1-.29,0l-.52-.42a.46.46,0,0,0-.51,0,4.41,4.41,0,0,1-1.8,1.22,2.55,2.55,0,0,1-.55.61,1,1,0,0,1-.8.22.8.8,0,0,1-.64.68,1.35,1.35,0,0,0-.84.48,5.55,5.55,0,0,1-1.48,1.16c.13.12.23.15.29.06a1.12,1.12,0,0,1,.32-.26l.42-.22a.72.72,0,0,1,.26-.1,1.69,1.69,0,0,1,.48-.16.94.94,0,0,0,.42-.16A3.07,3.07,0,0,1,9,25.09a1.6,1.6,0,0,1,.45-.32,3.51,3.51,0,0,1,.71-.2c.47-.21.76-.3.86-.25a1.57,1.57,0,0,1,.29.13,1,1,0,0,0,.52-.33c.08-.12.23-.15.45-.06,0,.26-.06.39-.29.39a1,1,0,0,0-.55.12,5.83,5.83,0,0,1-.77.65.78.78,0,0,1-.84.12q-1,.78-1.8,1.32a5.93,5.93,0,0,1-1.86.87c0,.22,0,.33-.19.35s-.22.14-.13.36a.5.5,0,0,0,.48.19,2.61,2.61,0,0,0,.42-.16l.38-.19a.35.35,0,0,1,.39,0,1.61,1.61,0,0,1,.77-.68c.34-.15.52-.35.52-.61a2,2,0,0,0,1-.38.8.8,0,0,1,.87-.13,6.91,6.91,0,0,1,.87-1.25,2.39,2.39,0,0,1,1.32-.74,5.25,5.25,0,0,0-.26-.55.19.19,0,0,1,0-.23.87.87,0,0,0,.58-.16.85.85,0,0,1,.64-.09c0-.3.14-.39.29-.26S14.35,23.12,14.48,22.9Zm-7.27.19a.54.54,0,0,0-.51.23c-.09.15-.28.22-.58.22a5.87,5.87,0,0,0,.42-.45,1.75,1.75,0,0,0,.16-.25ZM7,24.45a.32.32,0,0,0-.29.16q-.09.15-.42,0A.62.62,0,0,1,7,24.06ZM8.18,47.78c-.09-.22-.17-.41-.26-.58a.65.65,0,0,0-.51-.32,7.21,7.21,0,0,0-.39,1,1.67,1.67,0,0,0,.84,0A.53.53,0,0,1,8.18,47.78ZM21.35,25.15c0-.17-.12-.27-.25-.29a.72.72,0,0,0-.42.07,4,4,0,0,1-.45.16.33.33,0,0,1-.35-.07,1.5,1.5,0,0,1-.33-.67c0-.24-.27-.29-.7-.16a.69.69,0,0,0-.52-.42.48.48,0,0,0-.58.23v.89c-.34.22-.53.32-.57.29s-.11,0-.2.1c-.13-.21-.18-.16-.16.16s-.12.44-.41.35a3.46,3.46,0,0,1-2,1,1.56,1.56,0,0,0-.7.9c-.39.13-.64.21-.74.26s-.14.17-.1.38a1.51,1.51,0,0,0-.29-.67c-.11-.11-.05-.31.16-.61,0,.12.14.08.29-.13a.33.33,0,0,1,.55-.07c.34-.34.56-.55.67-.64a.45.45,0,0,1,.48,0c.43-.3.67-.51.71-.64s.17-.17.39-.13c0-.43.06-.63.19-.61s.11,0-.06-.16l.64-.52A.42.42,0,0,0,17,24c.07-.09.18-.11.35-.07a1.83,1.83,0,0,0-.57-.58,8.1,8.1,0,0,0-.9-.06,1.33,1.33,0,0,1-.71-.2,2,2,0,0,1-.35.78,1.16,1.16,0,0,1-.42.19,4.26,4.26,0,0,0-.61.48.5.5,0,0,1-.36.16,1.06,1.06,0,0,1-.51.23c-.17,0-.22.14-.13.35a.8.8,0,0,1-.77,0c-.3.43-.54.64-.71.64a.42.42,0,0,0-.38.2c-.22.51-.37.78-.45.8a.15.15,0,0,0-.13.16c.47-.08.67-.16.61-.22s-.06-.1,0-.1a1.71,1.71,0,0,0,.68-.1,2.4,2.4,0,0,1,.8-.09.85.85,0,0,1,.42-.61.92.92,0,0,1,.67-.17l.93-.38a1.06,1.06,0,0,0,.61-.45c-.17.47-.38.73-.64.77a14.55,14.55,0,0,1-2,1.06,9.76,9.76,0,0,0-2,1.19,2.29,2.29,0,0,1-1.09.61,1.14,1.14,0,0,0-.71.35c.17.48.35.65.55.52a.53.53,0,0,1,.61,0,.33.33,0,0,1,.35-.07.33.33,0,0,0,.36-.06q-.13-.31.06-.42a.22.22,0,0,0,.13-.29,2.77,2.77,0,0,1,.64,0,.26.26,0,0,1,.19.16.56.56,0,0,0-.51.57q.31.08.42-.09a.6.6,0,0,1,.42-.23c-.18-.13-.24-.23-.2-.32s.11-.23.2-.45a3.72,3.72,0,0,1-.49.19l-.22.07c.21-.39.34-.56.38-.52a.26.26,0,0,0,.2.07c0-.26.1-.42.19-.48a.47.47,0,0,1,.32-.1c-.08.6-.08.94,0,1a3,3,0,0,1,.32.38,2.44,2.44,0,0,1-.74.65,1.55,1.55,0,0,1-.61.13q-.57.38-.48.45a.71.71,0,0,0,.26.09,1.42,1.42,0,0,1,.29.1.27.27,0,0,1,.13.26,1.11,1.11,0,0,0,.7-.1,4.45,4.45,0,0,0,.58-.35,5.22,5.22,0,0,1,.48-.33.44.44,0,0,1,.49.07c.12-.39.22-.59.28-.61a.48.48,0,0,0,.17-.1,2.5,2.5,0,0,0,.61-.42c.15-.15.33-.14.54,0a2.38,2.38,0,0,1,.29-.26l.29-.19c-.09-.22,0-.39.23-.52a2.45,2.45,0,0,1,.73-.26,2.09,2.09,0,0,1,.49-.54c.1-.07.29-.05.54,0a1.11,1.11,0,0,1,.87-.67A3.43,3.43,0,0,0,19.81,26c0-.22.11-.33.45-.36s.54-.24.58-.67ZM10.17,27c-.3,0-.48,0-.55.12a2.63,2.63,0,0,0-.16.26c-.3.09-.46.17-.48.26a3.22,3.22,0,0,1-.16.45.65.65,0,0,1,.77,0c-.09-.3,0-.5.19-.61A.67.67,0,0,0,10.17,27Zm.64-4.25a1.78,1.78,0,0,1-.54-.12c-.24-.09-.38,0-.42.32q0-.07.45,0C10.6,23.06,10.77,23,10.81,22.77ZM22.7,26.24a6.66,6.66,0,0,0-.8.49.86.86,0,0,1-.93,0,8,8,0,0,1-1.06.87,2.66,2.66,0,0,1-1.26.48,1,1,0,0,1-.57.61,1.17,1.17,0,0,1-1,0,2.07,2.07,0,0,0-.45.48.44.44,0,0,1-.58.16,4.16,4.16,0,0,1-1.19.94,3,3,0,0,0-1.12,1,1,1,0,0,0,1.09.1,3.48,3.48,0,0,1,1-.35,3.35,3.35,0,0,1,1.48-.9c0-.26.06-.4.19-.42a.79.79,0,0,1,.45.09,1,1,0,0,1,.42-.7,2.93,2.93,0,0,1,.74-.39l.8-.26a1.28,1.28,0,0,0,.68-.45,1.26,1.26,0,0,1,.93-.7.87.87,0,0,0,.74-.58Zm-6.1.58c-.22-.08-.36,0-.42.13a.47.47,0,0,1-.35.32.77.77,0,0,1,.35-.61A.27.27,0,0,1,16.6,26.82Zm.9-.7a1.13,1.13,0,0,1-.48.12,1.66,1.66,0,0,0-.55.13A1,1,0,0,1,17,26,.58.58,0,0,1,17.5,26.12ZM28,26.57c0-.17-.19-.24-.45-.2s-.43,0-.51-.06c-.43.26-.7.35-.81.29a.4.4,0,0,0-.42,0c-.55-.13-.83-.14-.83,0s-.07.16-.19.16a.43.43,0,0,0-.68-.1.84.84,0,0,0-.29.81c0,.51-.13.73-.38.64a2.19,2.19,0,0,0-.71-.13c0,.22-.06.33-.29.35s-.25.14,0,.36a1.52,1.52,0,0,1-.52,0,.85.85,0,0,0-.51.1,1.78,1.78,0,0,0-.64.54.81.81,0,0,1-.71.29,7.45,7.45,0,0,1-1.67,1.29,6.77,6.77,0,0,0-1.55,1.15,2.11,2.11,0,0,0,1.39.33l1.44-.33c.6-.38,1-.64,1.29-.77a2.05,2.05,0,0,1,.61-.61,1.3,1.3,0,0,0,.48-.48.68.68,0,0,0,.55-.19c.1-.13.33-.17.67-.13.35-.34.61-.62.81-.84a1.3,1.3,0,0,1,.86-.38c.43-.22.66-.29.68-.23s.09.1.22.1c.22-.3.41-.45.58-.45l.26-.52q.06-.12.39,0a.39.39,0,0,1,.28-.41c.2-.07.27-.16.23-.29Zm-10.16,4.3c-.43-.13-.64,0-.64.45C17.63,31.28,17.84,31.13,17.88,30.87Zm.58-5.2a1.3,1.3,0,0,0-.22.29.41.41,0,0,1-.36.16c.05-.17.12-.27.23-.29A1.17,1.17,0,0,0,18.46,25.67Zm1,4.37a.89.89,0,0,1-.2-.36c0-.15-.17-.22-.38-.22a.35.35,0,0,1-.26.35c-.17.07-.21.16-.13.29a.39.39,0,0,1,.48-.06A.53.53,0,0,0,19.43,30Zm.83-3.28c-.09-.22-.21-.32-.38-.32a.73.73,0,0,0-.45.13.3.3,0,0,0,.32.25A2.22,2.22,0,0,0,20.26,26.76ZM35.11,37.88c.09-.47,0-.78-.13-.93a2.25,2.25,0,0,1-.45-.55c.22,0,.29-.18.23-.42a.45.45,0,0,1,.16-.54l-.29-.29a2.09,2.09,0,0,0-.29-.23,1.63,1.63,0,0,0,0-1.41,3.6,3.6,0,0,0-.71-1.29,1.22,1.22,0,0,0-.38-.7.42.42,0,0,1-.39.06.58.58,0,0,0-.45.06,1,1,0,0,0,.58.07c.13,0,.21,0,.26.06a.58.58,0,0,1-.52.58c-.6-.34-.94-.47-1-.39a2.22,2.22,0,0,1-.29,1.13,1.67,1.67,0,0,1-.54.45,1.38,1.38,0,0,1-.74.13,2.61,2.61,0,0,1-.74-.16.46.46,0,0,1,.51-.26,2.32,2.32,0,0,1,.58.19.87.87,0,0,0,.13-.64.52.52,0,0,1,.06-.45c.65-.43,1-.75,1-1a1.48,1.48,0,0,0,.77-.29q.14-.17.39,0a1.81,1.81,0,0,0-.32-1.74c-.39-.38-.77-.75-1.16-1.09q-.31.14-.45,0a.85.85,0,0,0-.38-.19c-.26.09-.39.18-.39.29s-.11.09-.32,0q-.14.31,0,.45c.11.08.08.17-.1.25,0-.13,0-.19-.12-.19h-.29a.88.88,0,0,1-.26,0c-.06,0-.1-.1-.1-.23a.39.39,0,0,0,.42-.25c.07-.17.2-.22.42-.13a.89.89,0,0,0-.52-.13.29.29,0,0,0-.32.32q-.32-.51-.48-.48a1.23,1.23,0,0,0-.29.09,3.49,3.49,0,0,1-.64.71,4,4,0,0,1-.39.23l-.35.16a.36.36,0,0,1-.35-.07,1.78,1.78,0,0,1-.74.71,4.57,4.57,0,0,1-1.13.32,7.15,7.15,0,0,1-1.09.87c-.26.15-.45.16-.58,0a1,1,0,0,1-.54.84,1.66,1.66,0,0,1-1.07.25,3.08,3.08,0,0,0-.61.65,1.29,1.29,0,0,1-.22.32,1.92,1.92,0,0,0,.38.19,1.75,1.75,0,0,1,.39.19A.62.62,0,0,1,21.9,33a1,1,0,0,0,.74-.36c.13.17.26.23.39.16a1.09,1.09,0,0,0,.38-.41c.09-.22.32-.22.71,0-.09-.56,0-.86.26-.9a1.16,1.16,0,0,0,.7-.52q.59.33.45.48a4,4,0,0,1-.38.42,1,1,0,0,1-.42-.1c-.15-.06-.25,0-.29.23a3.64,3.64,0,0,0,.93.19,1.56,1.56,0,0,0,.61-.13,4.89,4.89,0,0,1-.54.45,1,1,0,0,1-.87.13,4.58,4.58,0,0,1-.65.9,7.53,7.53,0,0,0-.51.58.77.77,0,0,0,.58-.1,3.27,3.27,0,0,0,.48-.35l.45-.38a1.13,1.13,0,0,1,.55-.26c.51,0,.75.15.7.32a2.46,2.46,0,0,1,.49-.1.83.83,0,0,0,.54-.35c.05-.34.15-.56.32-.64A3,3,0,0,0,28,32a.38.38,0,0,1,.42.39c0,.25.21.36.55.32,0-.17,0-.23.29-.16a.36.36,0,0,0,.48-.23c-.3.09-.51.06-.64-.1a.42.42,0,0,1,0-.54v-.77c.25.08.44,0,.54-.16s.25-.19.42,0a.87.87,0,0,1,.13-.55,3.54,3.54,0,0,0,.26-.35l.64.06h.35c.07,0,.12.07.16.2a.5.5,0,0,0-.41.32.41.41,0,0,1-.42.25.4.4,0,0,0-.39.1,1.37,1.37,0,0,0-.32.42c-.26.47-.46.7-.61.7a.28.28,0,0,0-.29.2,1.08,1.08,0,0,0,.52-.16.4.4,0,0,1,.45,0c.12.48.1.74-.07.81a.28.28,0,0,1-.38-.16,1.69,1.69,0,0,1-.77.83c-.35.18-.61.15-.78-.06q-.26.76-.51.9a1.64,1.64,0,0,0-.39.26,1.54,1.54,0,0,1-.7.22.7.7,0,0,0-.65.61l1-.19a4.53,4.53,0,0,0,.9-.26,1.07,1.07,0,0,1,.84.1c.26.15.42.12.51-.1.22.26.39.33.52.23a.19.19,0,0,1,.32,0l.67-.42c.11-.06.18,0,.23,0s.08.2.25.2a2.32,2.32,0,0,0,.52-.07c-.09.64-.25,1-.48,1a.48.48,0,0,0-.49.32l-.54-.1a.94.94,0,0,1-.42-.16c0,.3,0,.44.16.42a4.22,4.22,0,0,1,.55,0c.21.25.36.35.45.29s.19-.06.32,0a1.64,1.64,0,0,0,.64-.16,1.22,1.22,0,0,1,.26-.16,1.18,1.18,0,0,0-.39.51.66.66,0,0,1-.58.39,3.39,3.39,0,0,1-.74.16.83.83,0,0,0-.54.22c-.13.6-.16.92-.1,1a.5.5,0,0,0,.26.06h.32a.68.68,0,0,1,.29.06c.26-.21.45-.26.58-.16s.21.12.26,0a9.81,9.81,0,0,1,1-1.1l.36.26a.32.32,0,0,0,.35.06.42.42,0,0,0,.13.36,1.08,1.08,0,0,1,.26.29.47.47,0,0,0-.39.16.21.21,0,0,1-.32,0c-.22.17-.36.23-.45.16s-.24-.05-.45,0a.53.53,0,0,1,0,.39.68.68,0,0,0-.1.32,2.88,2.88,0,0,1-.77.67.9.9,0,0,0-.45.68,3.62,3.62,0,0,0,.77,0,2.12,2.12,0,0,0,.58-.16,2,2,0,0,1,.06.84c-.47,0-.7.1-.7.32.25.21.35.36.29.45a1,1,0,0,0-.16.26c.12.21.27.3.45.25a2.84,2.84,0,0,1,.64-.06c.21-.43.37-.63.48-.61a.9.9,0,0,0,.48-.1c.22.43.21.68,0,.74a3.3,3.3,0,0,0-.8.35.88.88,0,0,1-.58.84c-.05,0-.05.25,0,.61a2.6,2.6,0,0,1,0,.8q.19.13.54-.06a.36.36,0,0,1,.55.13,2,2,0,0,0,.36-.68c0-.15-.06-.26-.23-.35a1.2,1.2,0,0,0,.51.55c.18.06.22.2.13.41a6.08,6.08,0,0,1-.83.68,3.84,3.84,0,0,0-.39.22.65.65,0,0,0,.74-.06,1.93,1.93,0,0,1,.8-.39,1.42,1.42,0,0,1,.13-.54c.09-.2.16-.38.23-.55a.94.94,0,0,0,.06-.45c0-.13-.12-.23-.29-.32-.34-.09-.53-.09-.58,0s-.12.11-.25.06c.47-.34.71-.57.74-.7s.11-.2.29-.2c.08-.21,0-.33-.13-.35a.53.53,0,0,1-.39-.22A1.82,1.82,0,0,1,34.5,42c.15-.13.31-.08.48.13a4.93,4.93,0,0,0,.26-1.93,8.83,8.83,0,0,0-.32-1.86ZM23.73,25c-.25.13-.45.13-.58,0a.83.83,0,0,0-.7-.13.58.58,0,0,1-.42.39,4.22,4.22,0,0,0-.61.19,1.7,1.7,0,0,0,1.12.2A1.63,1.63,0,0,0,23.73,25Zm.07,1.74a.8.8,0,0,0-.55-.13c-.28,0-.37.11-.29.32s.21.09.39,0A3.72,3.72,0,0,1,23.8,26.76ZM25,37.69c.05-.35,0-.5-.19-.45l-.58.12C24.22,37.75,24.48,37.86,25,37.69Zm.77-3.48a.74.74,0,0,0-.51-.57c-.34.38-.4.57-.16.57Zm.58-8.09a.36.36,0,0,1-.29-.29c0-.15-.13-.21-.35-.16a2.53,2.53,0,0,1-.26.22A.71.71,0,0,1,25,26a4.67,4.67,0,0,1,.65.38c-.05-.21,0-.29.19-.22A.65.65,0,0,0,26.3,26.12Zm2.9,3.6a.94.94,0,0,0-.74-.1c-.28.06-.4.27-.36.61.43.3.65.54.65.71a.81.81,0,0,1-.45,0,.82.82,0,0,0-.39-.07.51.51,0,0,1-.16.32.38.38,0,0,1-.42.13,1.69,1.69,0,0,0-.77.77.55.55,0,0,1-.45-.16,1.2,1.2,0,0,0-.45-.29.58.58,0,0,1,.42-.22,1.14,1.14,0,0,0,.48-.16,2.88,2.88,0,0,1-.16-.48.76.76,0,0,1,0-.36,2,2,0,0,0,.65.58,3.84,3.84,0,0,0,.57.13q-.37-.45-.45-.42s-.1,0-.19-.09a1.06,1.06,0,0,1,.1-.74c.1-.15.33-.16.67,0a.74.74,0,0,0,.29-.32.48.48,0,0,1,.29-.25,1.1,1.1,0,0,1,.39.12c0,.05.17,0,.38-.06ZM27.27,10.3a1.46,1.46,0,0,0-.55.1,1.28,1.28,0,0,1-.67,0c-.09.13-.06.24.09.32a.39.39,0,0,1,.23.33,1.7,1.7,0,0,1,.48-.33A.78.78,0,0,0,27.27,10.3Zm-.13,28a4.23,4.23,0,0,1-.48.42c-.15.1-.16.2,0,.29a1.79,1.79,0,0,1,.32-.26A.51.51,0,0,0,27.14,38.33Zm-.13-4c-.17-.08-.25-.19-.22-.32s-.06-.23-.23-.32c0,.39,0,.62.13.71S26.88,34.47,27,34.34Zm.84-6.17c0-.3-.13-.42-.39-.38A.72.72,0,0,0,27,28c.13.18.25.22.38.13A.58.58,0,0,1,27.85,28.17Zm1.09,7.65a.26.26,0,0,1-.1-.35c.07-.15,0-.25-.22-.29a2,2,0,0,0-.81.38,3.16,3.16,0,0,1-.48.39A.74.74,0,0,0,28,36,2.49,2.49,0,0,1,28.94,35.82Zm.32-8.23c0-.21-.08-.32-.22-.32s-.23-.1-.23-.32a1.09,1.09,0,0,1-.55.19c-.15,0-.24.09-.29.26a1.89,1.89,0,0,0,.78.23A3.18,3.18,0,0,1,29.26,27.59Zm.19,6.75a.35.35,0,0,1-.48.23c-.23-.07-.4,0-.48.29A1.39,1.39,0,0,1,29.45,34.34ZM29.71,30c-.34.17-.55.24-.61.2a.29.29,0,0,0-.29,0C29,30,29.28,29.89,29.71,30Zm.51,4.18a1.8,1.8,0,0,1-1.28-.26c.08-.21.21-.27.38-.19s.3.09.39,0Zm.33-23.91c-.39.26-.68.44-.87.55a3.61,3.61,0,0,1-.48.22.8.8,0,0,1,.32.74,7.7,7.7,0,0,1-.2.87.57.57,0,0,0,.58-.29,1.09,1.09,0,0,1,.45-.48c.39,0,.52-.13.39-.52A3.38,3.38,0,0,1,30.55,10.24Zm.19,26.55a4.82,4.82,0,0,1-.9-.16c-.17-.07-.24,0-.19.16a.5.5,0,0,0,.45.16,1.21,1.21,0,0,1,.57.09Zm.19-22.95a.74.74,0,0,1,0-.58.65.65,0,0,0,0-.51c-.35-.05-.54,0-.58.25s-.22.3-.52.26c.09.56.25.8.49.74S30.72,13.88,30.93,13.84Zm0,4.37a.79.79,0,0,0,.39-1.09c-.17-.52-.32-.92-.45-1.22a1.36,1.36,0,0,0-.52,1.18A1.19,1.19,0,0,0,30.93,18.21ZM34.08,34a2.18,2.18,0,0,0-.42.16.61.61,0,0,1-.48,0,2,2,0,0,0-.42.62.2.2,0,0,1-.22.16.89.89,0,0,1-.84-.13,1,1,0,0,0-.83-.19q.38-.59.9-.33a4.85,4.85,0,0,0,.61-.29,2.27,2.27,0,0,0,.54-.41,4.54,4.54,0,0,1,.94.06A.29.29,0,0,1,34.08,34ZM31.64,39c-.22.09-.33.07-.35-.06s-.14-.15-.36-.07C31.4,39.1,31.64,39.14,31.64,39Zm.26,9.71a.39.39,0,0,0-.49.09,1.84,1.84,0,0,0-.35.49c.21,0,.33,0,.35-.23s.16-.24.42-.16Zm.57-10a1.26,1.26,0,0,1-.09-.35,1.31,1.31,0,0,0-.1-.36c-.17.26-.2.42-.1.48A1.34,1.34,0,0,1,32.47,38.65Zm.84-3.09c-.13.48-.26.67-.39.58a.45.45,0,0,0-.45,0,6.43,6.43,0,0,0,.65-.61C33.16,35.47,33.22,35.48,33.31,35.56Zm-.06,9.32a.63.63,0,0,1-.33.26l-.38.13L32.8,45A.44.44,0,0,1,33.25,44.88Zm.45-5.2a.45.45,0,0,1-.07.38.37.37,0,0,1-.45.2c-.21.38-.34.55-.38.51a.3.3,0,0,0-.2-.06c.09,0,.21-.23.36-.55A.76.76,0,0,1,33.7,39.68Zm.7-2.76a.51.51,0,0,1-.64.16.92.92,0,0,1-.51-.42c.42-.13.68-.14.77,0A1.22,1.22,0,0,0,34.4,36.92Zm-.32,1c-.21,0-.34-.06-.38-.19s-.18-.21-.39-.26c.47-.08.72-.06.74.07A2.43,2.43,0,0,1,34.08,37.94Zm.26,1.61c-.3.26-.48.3-.55.13s-.14-.22-.22-.13c-.09-.3,0-.37.16-.22A1,1,0,0,0,34.34,39.55Zm.58-1c.08.21.06.36-.07.45a.58.58,0,0,0-.25.38.42.42,0,0,1-.1-.38c0-.17-.08-.3-.29-.39,0-.17.14-.25.29-.23A1.1,1.1,0,0,1,34.92,38.59Z" transform="translate(-0.07 -0.15)"/><path class="cls-1" d="M61.59,43.21a5.46,5.46,0,0,0,.07.9.41.41,0,0,1-.39.52c-.09.86-.16,1.55-.22,2.09A2.4,2.4,0,0,1,60.5,48a1,1,0,0,1-.07.81,5.54,5.54,0,0,0-.38.74,8,8,0,0,0-.26,1.31,1.53,1.53,0,0,1-.38.94,1.76,1.76,0,0,1-1,.67,1.26,1.26,0,0,0-.83.81c-.6.17-.9.32-.9.44a20.29,20.29,0,0,1-4.76.1,9.38,9.38,0,0,1-4.5-1.57,1.5,1.5,0,0,0-.55-.84c-.27-.21-.56-.43-.86-.64a2.54,2.54,0,0,1-.2-.52.57.57,0,0,0-.38-.38,10.08,10.08,0,0,1-.36-1.64,2.72,2.72,0,0,0-.61-1.45,9.46,9.46,0,0,0,.29-2.28c0-.53-.05-1.17-.09-1.89a1,1,0,0,1-.48.25h-.68c0-.21.06-.33.19-.35a.31.31,0,0,0,.26-.23c-.26-.12-.36-.25-.32-.38a2.59,2.59,0,0,1,.19-.45,2.92,2.92,0,0,0,.81-1.13.93.93,0,0,0-.23-.8.82.82,0,0,0,.1-.64,1.65,1.65,0,0,1,0-.77.44.44,0,0,0-.35-.29.6.6,0,0,1-.35-.16.82.82,0,0,0-.13-.9.63.63,0,0,1,.22-.55,1.68,1.68,0,0,0,.42-.48v-.84a1.87,1.87,0,0,0-.13-.71,11.53,11.53,0,0,1-.09-3.5,26.81,26.81,0,0,0,.22-3.63c-.09-.08-.2-.08-.35,0a.58.58,0,0,1-.48.06c0-.47.06-.72.19-.77a.64.64,0,0,0,.32-.25c-.3-.3-.4-.47-.29-.52s.16-.15.16-.32a2,2,0,0,0-1.22-.39c-.47,0-1,0-1.45.07a10.82,10.82,0,0,1-1.38,0,1.31,1.31,0,0,1-1-.54,1.39,1.39,0,0,1,.81-.78,4.58,4.58,0,0,1,1.12-.32,3.49,3.49,0,0,1,.55-.54,3.52,3.52,0,0,0,.54-.55l1.93-1a14.56,14.56,0,0,0,1.55-1,2.14,2.14,0,0,1,.38-.68,1.2,1.2,0,0,1,.32-.16A9.63,9.63,0,0,0,48.7,15a29.43,29.43,0,0,0,1.19-5.79,9.88,9.88,0,0,1,0-1.54,1.6,1.6,0,0,1,.58-1.22c.3.08.46.19.48.32s.14.19.36.19a6.38,6.38,0,0,0-.39,1.74c0,.55-.11,1.13-.19,1.73a.93.93,0,0,1-.1.45,1.06,1.06,0,0,0-.09.45A6.43,6.43,0,0,0,51,13.1a3.39,3.39,0,0,1,.1,2,1.93,1.93,0,0,0,0,1.22,6.85,6.85,0,0,0,.39.77,2.47,2.47,0,0,0-.16,1.09,11.4,11.4,0,0,0,.12,1.16,9,9,0,0,1,.13,1.19,4.74,4.74,0,0,1-.09,1.19,3,3,0,0,0,2.21.61c.92-.07,1.81-.1,2.67-.1a2.7,2.7,0,0,1,1.13.13,2.64,2.64,0,0,0,1.12.13,3.66,3.66,0,0,1,1.45.16c.49.15.71.54.67,1.19a17.9,17.9,0,0,1-4.34.32,13.84,13.84,0,0,0-4,.32c-.21,0-.33,0-.35-.13a.36.36,0,0,0-.29-.26.37.37,0,0,0-.23.49,3.55,3.55,0,0,0,.23.61,1.63,1.63,0,0,0-.52,1,1.6,1.6,0,0,0,.2,1.19.34.34,0,0,0-.2.42.43.43,0,0,1-.19.48v3.12a18.15,18.15,0,0,1-.32,3.37A1.37,1.37,0,0,1,50.86,36a1.16,1.16,0,0,0,.25,1.16,1.37,1.37,0,0,0-.35.77,3.62,3.62,0,0,0,0,.8c.05.28.1.56.16.84a2.3,2.3,0,0,1,0,.87.51.51,0,0,0,.19.45c.13.08.08.19-.13.32,0,1,.09,2,.13,2.76s.11,1.59.19,2.31a5.31,5.31,0,0,1,.19,1.19,2.75,2.75,0,0,0,.13.81c.43,0,.58.2.45.61a.85.85,0,0,0,.26,1c.47.26.66.42.58.49a.26.26,0,0,0-.13.22,1.62,1.62,0,0,0,.35.55,3,3,0,0,1,.42.54c.3.09.63.21,1,.36a6.32,6.32,0,0,0,1.12.35,4.82,4.82,0,0,0,1.09.13,1.4,1.4,0,0,0,.91-.32,2.5,2.5,0,0,0,.93-2c0-.86.07-1.74.16-2.64a14.6,14.6,0,0,0,0-1.61c0-.51,0-1,0-1.48a4.73,4.73,0,0,1-.07-.73V43a6.82,6.82,0,0,0-.41-1.16,2,2,0,0,1-.16-1.28,4,4,0,0,1,.38-1.19,5.66,5.66,0,0,1,.64-1.06,1.73,1.73,0,0,1,1.1-.26,3,3,0,0,0,.25,1.09l.23.58c.06.18.14.37.22.58a2.21,2.21,0,0,0,.32.55,1.14,1.14,0,0,1,.26.54,3.51,3.51,0,0,1,0,.87Q61.59,42.76,61.59,43.21Zm-11.25-24a1.78,1.78,0,0,0-.83.2,5.91,5.91,0,0,0-.74.42,6.13,6.13,0,0,1-.71.38,1.4,1.4,0,0,1-.8.1c-.64.43-1.13.77-1.45,1a9,9,0,0,0-.9.84c-.28.3-.56.61-.83.93a3,3,0,0,1-.94.74.4.4,0,0,0,.36.1l.42,0c.42-.26.63-.43.61-.52s0-.13.09-.13a.88.88,0,0,1,.61-.35,2.15,2.15,0,0,0,.74-.22,4.36,4.36,0,0,0,1-.9c.32-.39.63-.54.93-.46a3.23,3.23,0,0,1,1.32-1A1.92,1.92,0,0,0,50.34,19.17Zm.2,3a1.76,1.76,0,0,1,.06-1.07,1.18,1.18,0,0,0-.13-1.06l-1.25.78a11.74,11.74,0,0,1-1.32.7,2.54,2.54,0,0,1-.29.36.6.6,0,0,1-.54.09,3,3,0,0,1-1.35,1,2.74,2.74,0,0,0-1.29,1,1.5,1.5,0,0,0,.55-.1l.48-.23a1.2,1.2,0,0,0-.52.65,2.74,2.74,0,0,0,1-.36,3.27,3.27,0,0,0,.64-.61,2.22,2.22,0,0,1,.29-.38,1,1,0,0,1,.74-.26,1.6,1.6,0,0,1,.71-.74,4.39,4.39,0,0,1,1-.35c.56-.26.88-.35,1-.26a3.81,3.81,0,0,0-.48.61.54.54,0,0,1-.67.23c-.17.21-.35.41-.52.61a1.07,1.07,0,0,1-.83.28,2.5,2.5,0,0,1-1.29,1,2.88,2.88,0,0,0-1.35,1.1c.39-.26.68-.34.87-.23s.33.1.42,0a2.25,2.25,0,0,0,.67-.29,2.56,2.56,0,0,1,.55-.29,1.51,1.51,0,0,0,.42.16.33.33,0,0,0,.29-.09,3,3,0,0,1,1.22-1.1A2,2,0,0,0,50.54,22.2Zm-3.47,8.29a11.41,11.41,0,0,1-1.1.58c-.38.17-.77.36-1.15.57.38.22.65.23.8,0a.56.56,0,0,1,.67-.16,1.16,1.16,0,0,1,.52-.62C47.07,30.75,47.15,30.62,47.07,30.49Zm3.14-5.6a.87.87,0,0,1,0-.54.42.42,0,0,0,0-.42,3.62,3.62,0,0,0-1.25.48,3.22,3.22,0,0,1-1.12.48c-.39.22-.58.39-.58.52a.28.28,0,0,1-.13.26,1.14,1.14,0,0,0-1,.35,2,2,0,0,1-1.06.55.73.73,0,0,1,0,.8.61.61,0,0,0,0,.74.46.46,0,0,0,.38,0,.45.45,0,0,1,.39,0,2.07,2.07,0,0,1,.77-.64,3.5,3.5,0,0,0,.45-.35.83.83,0,0,1,.71-.16c.47-.22.68-.37.64-.45a.79.79,0,0,1-.06-.32,1.15,1.15,0,0,0,1-.52A1.78,1.78,0,0,1,50.21,24.89Zm-1,7.07a3.8,3.8,0,0,0-1,.39,2.74,2.74,0,0,1-1.09.32,4.75,4.75,0,0,1-1.68,1.22.66.66,0,0,0-.12.68.33.33,0,0,1-.2.48l2.38-1.48A6.22,6.22,0,0,0,49.19,32ZM50,41.22c0-.08,0-.24-.1-.48a1.87,1.87,0,0,1-.16-.8,5.11,5.11,0,0,1,0-1,.56.56,0,0,0-.42-.64,6.35,6.35,0,0,1-.58.77.43.43,0,0,1-.51.06,1.91,1.91,0,0,1,.45-.83.51.51,0,0,0,.19-.45,1.35,1.35,0,0,1-1,.32,1,1,0,0,0-.8.19,1.32,1.32,0,0,1,.87-.41,4.45,4.45,0,0,0,.93-.23c.34-.47.61-.81.8-1a.83.83,0,0,0,.16-.83c-.3.12-.43.26-.41.41s0,.25-.16.29l-.52-.7q.33.26.42,0a1,1,0,0,1,.23-.39,2.07,2.07,0,0,0-.71,0,.45.45,0,0,0-.45,0c-.13.09-.22.06-.26-.06.22-.22.39-.32.52-.32a.48.48,0,0,0,.32-.13,1.1,1.1,0,0,1,.41-.07h.49c.08-.25.16-.49.22-.71a1.49,1.49,0,0,0,0-.83,2,2,0,0,0-1,.48,1.81,1.81,0,0,1-1,.48.85.85,0,0,1-.65.71,1.19,1.19,0,0,0-.77.71c.09.21.2.29.32.22s.22,0,.26.29c-.43.17-.61.27-.54.29s.07.1,0,.23a.67.67,0,0,0-.68.32,1.22,1.22,0,0,1-.54.51c-.09.47,0,.78.22.93a3.25,3.25,0,0,0,.8.36.78.78,0,0,1,.42-.29c.19-.07.31,0,.36.09a4,4,0,0,1-.49.29,3.3,3.3,0,0,0-.51.36,1.07,1.07,0,0,0-.32.45.57.57,0,0,0,0,.51c.09-.21.2-.31.35-.29a.68.68,0,0,0,.49-.16.81.81,0,0,1-.58.64.18.18,0,0,1,0,.23l-.19.19a1.13,1.13,0,0,0-.13.16s.08.09.29.13q0-.45.39-.45h.83a2.91,2.91,0,0,1,1.1-.93,1.11,1.11,0,0,1,1.28,0,6.32,6.32,0,0,0-.67.64l-.32.39a4,4,0,0,1-.36.35.76.76,0,0,1-.51.16,1.41,1.41,0,0,1,.06-.35.4.4,0,0,1,.32-.29q-.31-.2-.45,0a2.23,2.23,0,0,1-.25.32.37.37,0,0,0-.45,0,.48.48,0,0,1-.52,0,2.27,2.27,0,0,1-.61,1c-.19.13-.25.39-.16.77a.75.75,0,0,0,.61-.38,1.27,1.27,0,0,1,.48-.52l-.12.77a.59.59,0,0,0-.52.32.78.78,0,0,0-.13.58.31.31,0,0,0,.32,0,.52.52,0,0,1,.45,0,1.93,1.93,0,0,0,.39-.45.44.44,0,0,1,.19-.19,9.45,9.45,0,0,1,.87-.48l.71-.32a7.12,7.12,0,0,0,.67-.36A.8.8,0,0,0,50,41.22ZM46.55,28.56a6.57,6.57,0,0,1-.67.22.56.56,0,0,0-.42.49.91.91,0,0,0,.67-.23A4.81,4.81,0,0,0,46.55,28.56Zm2.89,14a1.57,1.57,0,0,0-.83.19,5.47,5.47,0,0,0-.61.42l-.58.45a1.07,1.07,0,0,1-.68.22.68.68,0,0,1-.25.32.82.82,0,0,1-.39.07c-.09.21-.19.46-.32.74a.6.6,0,0,0,.13.74c.26-.43.53-.65.83-.65a1.33,1.33,0,0,1,.61-.67,6.26,6.26,0,0,0,1-.74,3.37,3.37,0,0,0,.39-.48c.13-.2.27-.23.45-.1ZM49,36.66a.93.93,0,0,1-.48.35.7.7,0,0,0-.42.42,2.11,2.11,0,0,0-1,.42,5.16,5.16,0,0,1-.39.41,1.27,1.27,0,0,1-.42.29.65.65,0,0,1-.54,0q.51-.45.45-.48c-.05,0-.05-.08,0-.16.21.08.34,0,.38-.13s.17-.21.39-.13c.42-.26.63-.43.61-.51a.19.19,0,0,1,0-.19,1.22,1.22,0,0,0,.42-.26,1.83,1.83,0,0,0,.16-.26.55.55,0,0,0,.35.16C48.66,36.58,48.82,36.62,49,36.66Zm1.22,8.87c-.38.17-.55.28-.51.32s0,.13,0,.26a3.5,3.5,0,0,1-.74,0c-.06,0-.07-.12,0-.29s.34-.27.51-.42a.45.45,0,0,0,.13-.55c-.47.31-.9.57-1.28.81l-1.1.67q-.57-.12-.57.45c-.35,0-.53.2-.55.58s.12.62.42.71a1.23,1.23,0,0,1,.48-.48,1.33,1.33,0,0,0,.48-.49A4.68,4.68,0,0,1,48.54,46a2.82,2.82,0,0,1,.23.42,2.78,2.78,0,0,0,.22.42,2.78,2.78,0,0,1-.93.54,2.68,2.68,0,0,0-.87.49,1,1,0,0,0,1.32,0,2.63,2.63,0,0,1,1.13-.61c.42-.21.65-.47.67-.77A3,3,0,0,0,50.21,45.53Zm-2.5-6.11a1.54,1.54,0,0,1-.36.36.56.56,0,0,1-.54,0,2.13,2.13,0,0,0,.45-.48Q47.52,39,47.71,39.42ZM48,31.71a.72.72,0,0,0-.64-.07c-.17.09-.21.2-.13.32a.79.79,0,0,1,.42-.12A.48.48,0,0,0,48,31.71Zm2,12.66a.7.7,0,0,0,.16-.58.63.63,0,0,0-.23-.51.37.37,0,0,1-.45.26,1,1,0,0,0-.64.06c-.21.51-.4.77-.55.77a.67.67,0,0,0-.41.13c.08.26,0,.38-.16.38s-.27.11-.23.33A2.77,2.77,0,0,0,48.54,45c.09-.17.19-.27.29-.29a1.22,1.22,0,0,0,.36-.13,3.08,3.08,0,0,1,.38-.16A.65.65,0,0,1,50,44.37Zm-1.35,5.21a1,1,0,0,0-.61-.2c-.24,0-.38.16-.42.45a.65.65,0,0,0,.58,0A1.49,1.49,0,0,0,48.61,49.58ZM50.09,15.9a1.94,1.94,0,0,0-.29.32c-.07.08-.08.23,0,.45a6.72,6.72,0,0,1-.83.93,4.54,4.54,0,0,0-.77.93,4.73,4.73,0,0,1,.74-.48,2.94,2.94,0,0,0,.7-.51,1.92,1.92,0,0,0,.45-.68A1.6,1.6,0,0,0,50.09,15.9ZM50,29.72a3.71,3.71,0,0,0-.9.77,4.17,4.17,0,0,1-.9.77A1.23,1.23,0,0,0,49.44,31,2.56,2.56,0,0,0,50,29.72Zm.13-3.22c-.3,0-.46.06-.49.29s-.2.33-.54.29a1.19,1.19,0,0,1-.39.58,1.14,1.14,0,0,0-.38.64c.42-.08.67-.2.74-.35s.16-.16.29,0a1.7,1.7,0,0,1,.54-.65A.67.67,0,0,0,50.09,26.5Zm.32,22a1.32,1.32,0,0,0-1.06.26,1.57,1.57,0,0,1-.87.38c.08.22.2.32.35.32a1.2,1.2,0,0,0,.45-.09,3.87,3.87,0,0,0,.48-.26,1,1,0,0,1,.52-.16Zm-.07-30.47a2.34,2.34,0,0,0-.83.29.64.64,0,0,0-.39.55,7.12,7.12,0,0,0,.74-.29A.85.85,0,0,0,50.34,18.08Zm-.45-2.38a1.1,1.1,0,0,0,.29-.9,1.58,1.58,0,0,0-.29-.9,3.37,3.37,0,0,0-.25.9,2.21,2.21,0,0,1-.39.9Zm3.86,37.41a1.42,1.42,0,0,0-1.09-.8,3.72,3.72,0,0,0-1.55.16.28.28,0,0,1-.19-.29.38.38,0,0,0-.25-.35.39.39,0,0,1-.49.25.57.57,0,0,0-.54.13c.64.22,1.3.43,2,.65A5.8,5.8,0,0,0,53.75,53.11Zm6.17-12.66c.09-.09.1-.21,0-.39a3.35,3.35,0,0,0-.16-.38C59.66,40.15,59.71,40.41,59.92,40.45Zm.13,6.11a13.17,13.17,0,0,1,.13-1.77A3.82,3.82,0,0,0,60,43c-.05.6-.09,1.2-.13,1.8A5,5,0,0,0,60.05,46.56Z" transform="translate(-0.07 -0.15)"/><path class="cls-1" d="M98,34c-.51,0-.78,0-.8.07s-.08.06-.16.06a.69.69,0,0,0,.35.19.89.89,0,0,1,.36.2,1.35,1.35,0,0,1-.39.35,1.51,1.51,0,0,0-.39.35.77.77,0,0,1,.13.87A1.39,1.39,0,0,0,97,37a1.73,1.73,0,0,1,.71.13.87.87,0,0,1-.17.58,4.1,4.1,0,0,1-.35.39,1.57,1.57,0,0,0-.32.41,1.2,1.2,0,0,0-.13.61,2.08,2.08,0,0,0-.29.87,1.61,1.61,0,0,1-.22.74,1.21,1.21,0,0,1-.13,1.13,4,4,0,0,0-.58.8,17.92,17.92,0,0,0-1.67,4.24,20.36,20.36,0,0,0-2,2.38,5.71,5.71,0,0,1-2.41,1.93c-.51.3-1,.56-1.44.77l-1.38.64a.83.83,0,0,1-.61-.48.92.92,0,0,0-.49-.48.92.92,0,0,1-.45.74,1,1,0,0,0-.45.8,1.26,1.26,0,0,1-.67.45c-.28.09-.56.16-.84.23l-.83.16a2.09,2.09,0,0,0-.74.25,3.2,3.2,0,0,0-1-.06l-.42.13c-.85-.22-1.71-.41-2.57-.58a14.38,14.38,0,0,1-2.44-.71,3,3,0,0,1-.74-.48.41.41,0,0,0-.55,0,.65.65,0,0,0-.45-.42A.53.53,0,0,1,73,51.7,2.35,2.35,0,0,1,71.43,51a3.64,3.64,0,0,0-1.35-.9c-.09-.13-.16-.26-.23-.38a3.84,3.84,0,0,0-.22-.39c-.48,0-.71-.21-.71-.64a.33.33,0,0,1-.39-.16.56.56,0,0,0-.38-.29,3.84,3.84,0,0,0-1.06-1.77A4.22,4.22,0,0,1,66,44.69a2.41,2.41,0,0,1-.83-.26,3.07,3.07,0,0,0,.06-.57c0-.17.11-.3.32-.39a1.05,1.05,0,0,1-.29-1,.93.93,0,0,0-.35-1,1.63,1.63,0,0,0,0-.87,1.34,1.34,0,0,1,0-.74.63.63,0,0,1-.35-.61.66.66,0,0,1,.29-.67,7.49,7.49,0,0,1-.06-.81,5.86,5.86,0,0,1,.06-.74c-.13-.21-.29-.3-.48-.25s-.33-.07-.42-.33a.83.83,0,0,1,.19-.51,2.07,2.07,0,0,1,.48-.45l.55-.38a.81.81,0,0,0,.32-.45.9.9,0,0,1-.22-.65,1.5,1.5,0,0,1,.19-.61l.35-.58a3.25,3.25,0,0,0,.33-.61.78.78,0,0,0-.78,0,.47.47,0,0,1-.7-.22.48.48,0,0,1,.25-.29c.13-.06.15-.2.07-.42a19.4,19.4,0,0,1,1.73-1.25,1.9,1.9,0,0,0,.84-1.64c.3-.34.6-.68.9-1a2.45,2.45,0,0,1,1-.67,1.07,1.07,0,0,1,.64-.77,1.54,1.54,0,0,1,.35-.9,3.06,3.06,0,0,1,.65-.55,8.12,8.12,0,0,0,.67-.48,1.75,1.75,0,0,0,.52-.71,7.94,7.94,0,0,1,2.54-1.54,11.81,11.81,0,0,0,2.53-1.29,1.32,1.32,0,0,0,.84-.19,2,2,0,0,1,1.09-.19,1.06,1.06,0,0,1,.45.09.46.46,0,0,0,.45,0,.89.89,0,0,0,.65.26l.83,0a6.31,6.31,0,0,1,.87,0,1.64,1.64,0,0,1,.74.22,1.19,1.19,0,0,1,1,.13,1.2,1.2,0,0,0,.94.19c.08.3.22.41.41.32a.9.9,0,0,1,.55-.06,1.47,1.47,0,0,1,1,.39,2.48,2.48,0,0,0,.84.51,1.17,1.17,0,0,1,.8.26,2.12,2.12,0,0,0,.61.38l1,.39a8.13,8.13,0,0,0,1,.32c.09.34.18.68.29,1a.74.74,0,0,0,.8.48c-.08.51,0,.85.32,1a1.05,1.05,0,0,1,.58.73,1.22,1.22,0,0,0,.61,0,.46.46,0,0,1,.55.26c.43,0,.66,0,.71.19a1.07,1.07,0,0,1-.32.39,1,1,0,0,0-.33.45,1.62,1.62,0,0,1,.2.42,2.27,2.27,0,0,0,.19.48c.39.26.64.38.77.35a.32.32,0,0,1,.32.16,3.09,3.09,0,0,0,.2,2,6.37,6.37,0,0,1,.51,2.15c.34-.08.56,0,.64.1A.86.86,0,0,0,98,34ZM73.61,31.39c-.21,0-.33,0-.35.13s-.14.08-.36,0a1.14,1.14,0,0,0-.61.54c-.06.19-.26.25-.61.16a2.06,2.06,0,0,1-1.12.74,1.94,1.94,0,0,0-1.13.87l-.7-.07a1,1,0,0,0-.26.45.35.35,0,0,0,.13.26,5.12,5.12,0,0,1,1.12-.67,6.06,6.06,0,0,1,1-.29,1.13,1.13,0,0,1-.87.7,1.25,1.25,0,0,0-.87.52,3,3,0,0,1-1.48.74,2.53,2.53,0,0,0-1.22.48A1.58,1.58,0,0,0,65.71,37c0,.41-.09.85-.13,1.32a5.53,5.53,0,0,0,.74-.13.41.41,0,0,0,.29-.32.25.25,0,0,0,.32,0,.5.5,0,0,1,.38,0c0-.34.19-.54.45-.58a1,1,0,0,0,.65-.38,1.42,1.42,0,0,1-.68.83,9.17,9.17,0,0,0-1,.64,2.9,2.9,0,0,1-.61.81,5.55,5.55,0,0,1-.48.29,1,1,0,0,0,.26.9,16.79,16.79,0,0,0,1.44-.9,3,3,0,0,1,1.45-.58l.55-.65a1,1,0,0,1,.35-.25,3.38,3.38,0,0,0,.84-.48l.25-.33a.75.75,0,0,1,.29-.22.56.56,0,0,1,.42.06c.47-.38.72-.66.74-.83a.34.34,0,0,1,.23-.32c0-.35.1-.5.32-.45a.85.85,0,0,0,.57-.07q.14-.9-.06-.93c-.13,0-.19-.14-.19-.35a1.35,1.35,0,0,0,.35-.58.94.94,0,0,0,0-.64,2.12,2.12,0,0,1-.9-.07.4.4,0,0,1-.26.32,1.87,1.87,0,0,1-.45.1,3.06,3.06,0,0,0-.51.1.62.62,0,0,0-.39.25c.22-.43.45-.58.71-.45A13.66,13.66,0,0,0,73,32.48,1,1,0,0,0,73.61,31.39Zm-.13,6.75c-.25-.26-.34-.43-.25-.52a1.3,1.3,0,0,0,.22-.29,1.37,1.37,0,0,0,.16-.32.46.46,0,0,0-.13-.42,1.74,1.74,0,0,0-.8.16.87.87,0,0,1-.61.1.72.72,0,0,1-.42.61,4,4,0,0,1-.61.23,7.73,7.73,0,0,1-.64.7.94.94,0,0,1-1,.26c-.3.26-.42.42-.35.48s0,.12,0,.16c-.25,0-.38.07-.38.2a.26.26,0,0,1-.19.25,1,1,0,0,1-1.1.32c0,.3,0,.43-.22.39s-.31,0-.36.26a6.46,6.46,0,0,1,.9-.32,2.38,2.38,0,0,0,.78-.39.32.32,0,0,1-.07.42,1.09,1.09,0,0,1-.51.22.64.64,0,0,1-.49-.06c-.19-.09-.28,0-.28.19-.26.56-.43.84-.52.84a.71.71,0,0,1-.32-.13.67.67,0,0,0-.16.77.93.93,0,0,0,.48.58c.81-.52,1.63-1,2.44-1.48s1.61-1,2.38-1.54a1.9,1.9,0,0,0,.58-.36c0-.06.13-.07.26,0a1.33,1.33,0,0,1,.61-.67A1.88,1.88,0,0,0,73.48,38.14Zm.32-8.87a1.78,1.78,0,0,0-1.06.16,4.27,4.27,0,0,1-.93.35c-.08.43-.27.66-.54.71a2.61,2.61,0,0,0-.94.38,1.1,1.1,0,0,0-.29.32.41.41,0,0,1-.41.2q0-.45.09-.45a2.15,2.15,0,0,0,.42-.07.62.62,0,0,1,.1-.35.87.87,0,0,0,.09-.42,9.75,9.75,0,0,1-2.09,1,2,2,0,0,0-1.31,1.12,3.69,3.69,0,0,0,1.64-.7c.23-.26.56-.28,1-.07a1,1,0,0,1-.64.51,1,1,0,0,0-.64.52,2,2,0,0,0-.49-.23c-.19-.06-.31,0-.35.23a.68.68,0,0,1-.45.64c-.26.09-.34.24-.26.45.09-.17.2-.22.33-.16a1,1,0,0,0,.51.1c.17.08.06.19-.32.32a1.36,1.36,0,0,0-.84.71.46.46,0,0,1,.42.06,1.07,1.07,0,0,0,.48.19c0-.51.11-.77.45-.77A2.13,2.13,0,0,1,69,33.28a1,1,0,0,0,.77-.35,2,2,0,0,1,1-.51,1.54,1.54,0,0,0,.77-.33A1.23,1.23,0,0,0,70.4,32a1.59,1.59,0,0,0,.61-.38.62.62,0,0,1,.67-.19c0,.13.17.16.39.09a.68.68,0,0,0,.45-.41.91.91,0,0,1,.38-.23.39.39,0,0,0,.26-.42A1,1,0,0,0,73.8,29.27ZM73,41.09a4.12,4.12,0,0,0-1.54.52,3.44,3.44,0,0,1-1.41.45c0,.21-.12.32-.36.32h-.48a2.45,2.45,0,0,1-1.19,1.09,2.34,2.34,0,0,0-1.06.77.81.81,0,0,1,.35.29,1.34,1.34,0,0,0,.23.29l2-1.28a15.85,15.85,0,0,1,2.06-1.16,1.19,1.19,0,0,1,.64-.58A1.77,1.77,0,0,0,73,41.09Zm1.1-14.2a6.45,6.45,0,0,0-2.58,1.22,12.18,12.18,0,0,1-2.31,1.48,1.93,1.93,0,0,1-.74.58,1.72,1.72,0,0,0-.67.45.37.37,0,0,0,.54-.13.37.37,0,0,1,.55-.13,1,1,0,0,1,.58-.45,7,7,0,0,0,.77-.32c.26-.47.62-.54,1.09-.2a5.55,5.55,0,0,1,1.1-.86A4.58,4.58,0,0,1,74,28,1.75,1.75,0,0,0,74.13,26.89Zm-.52,19.34a1.49,1.49,0,0,0-.48-.12,1,1,0,0,0-.42.12.45.45,0,0,1-.25.36.88.88,0,0,1-.65.09.39.39,0,0,1-.29.42q-.28.1-.42,0c-.25.47-.77.67-1.54.58-.08-.17-.16-.31-.22-.42s-.06-.29,0-.55a1.87,1.87,0,0,0,.87-.67,1,1,0,0,1,.93-.42,1.25,1.25,0,0,1,.71-.67.9.9,0,0,0,.58-.68.58.58,0,0,0,.44-.13,2.36,2.36,0,0,1,.33-.25,1.51,1.51,0,0,0,.29-.26c.06-.09,0-.21,0-.39a2.23,2.23,0,0,0-.83.16,4.47,4.47,0,0,0-.77.42,5.6,5.6,0,0,1-.84.45,2.73,2.73,0,0,1-1.09.19c-.52.52-.86.85-1,1a3.22,3.22,0,0,1-.64.42,3,3,0,0,0,.86,1.73c.45.43.91.86,1.39,1.29a5,5,0,0,0,.86-.61.8.8,0,0,1,1,0A2.1,2.1,0,0,1,73.07,47,1.33,1.33,0,0,0,73.61,46.23Zm-4.5-13.49a1.8,1.8,0,0,1-.45.19s-.11.09-.19.26c-.13-.26-.09-.42.13-.49A.58.58,0,0,1,69.11,32.74Zm.45,9.38c.09-.08.11-.22.07-.42s-.17-.26-.39-.22a1.84,1.84,0,0,1,.16.38A.56.56,0,0,0,69.56,42.12Zm.52-2.57a.6.6,0,0,1-.36.16.64.64,0,0,1-.35,0c0-.13.1-.19.29-.19A1.1,1.1,0,0,1,70.08,39.55ZM74.9,25.34a1.26,1.26,0,0,1-.07-.7,6.74,6.74,0,0,0-2,1.06A7.33,7.33,0,0,1,71,26.76a3.61,3.61,0,0,0-.81.48,1.51,1.51,0,0,0-.48.8,2,2,0,0,0,1.54-.45,7.93,7.93,0,0,1,1.1-.83,2.5,2.5,0,0,1,.77-.26.94.94,0,0,0,.64-.45.92.92,0,0,0,.64-.32A1.21,1.21,0,0,1,74.9,25.34ZM73.68,39.68c-.22-.3-.41-.39-.58-.26a5.21,5.21,0,0,0-.52.45,2.63,2.63,0,0,1-.54.42.55.55,0,0,1-.55,0,.62.62,0,0,1-.45.52c-.26.08-.36.23-.32.45a7.13,7.13,0,0,1,.87-.36,9.38,9.38,0,0,0,.93-.35.59.59,0,0,1,.48-.45A1.46,1.46,0,0,0,73.68,39.68Zm-.13,2.76a1.06,1.06,0,0,0-1.19.07,5.19,5.19,0,0,1-1,.7A1,1,0,0,0,72.49,43,2.27,2.27,0,0,1,73.55,42.44Zm.83,8.81A4.43,4.43,0,0,1,74.19,50a2.56,2.56,0,0,0-.32-1.22,2.57,2.57,0,0,0-1,.39,8.43,8.43,0,0,0-1,.7,4,4,0,0,0,1.25.78A5.89,5.89,0,0,1,74.38,51.25Zm-1-6.11a3.4,3.4,0,0,1-.8.36.32.32,0,0,0-.29.29,4.88,4.88,0,0,1,.64-.23A.67.67,0,0,0,73.42,45.14Zm.38,2.51c-.17-.13-.4-.1-.7.1s-.41.39-.32.61l.45-.13a4.09,4.09,0,0,1,.51-.13ZM76.12,22.9a5.13,5.13,0,0,0-1.74.58,7,7,0,0,1-1.41.64,2,2,0,0,0,1.7-.22C75.16,23.58,75.65,23.25,76.12,22.9ZM88.2,38.33a1.36,1.36,0,0,0-.41-.23c-.11,0-.21-.14-.29-.35.08-.64.27-1,.57-1a4.48,4.48,0,0,1,.07-.8,5.7,5.7,0,0,0,.06-.8c-.25-.18-.38-.34-.38-.49a1.72,1.72,0,0,1,.09-.51c.07-.19.13-.41.2-.64a1.51,1.51,0,0,0,0-.81,2.24,2.24,0,0,1-.7.16,2.12,2.12,0,0,1-.68,0,.49.49,0,0,1-.38-.29c-.07-.15,0-.37.16-.67a2.91,2.91,0,0,0,1.09-.61,1.24,1.24,0,0,0,.19-1.32,2.78,2.78,0,0,1-.7-.58,1.46,1.46,0,0,1-.13-.39,1.49,1.49,0,0,0,.41-.7,3.49,3.49,0,0,0,.1-.9l-.38-.26a1.12,1.12,0,0,1-.33-.32.34.34,0,0,1,0-.42.51.51,0,0,0,.16-.35.49.49,0,0,0-.2-.45,1.16,1.16,0,0,1-.32-.39,5.84,5.84,0,0,0-.38-1,1.79,1.79,0,0,0-.26-.32q-.14-.78-.48-.9a.77.77,0,0,1-.48-.45,2.08,2.08,0,0,1-1-.1l-.93-.32a3.63,3.63,0,0,0-1-.19,2.13,2.13,0,0,0-1.06.22,1.09,1.09,0,0,0-1.29.07,1.87,1.87,0,0,0-1.13.45,3.08,3.08,0,0,1-.73.57,2.62,2.62,0,0,1-.9.49.85.85,0,0,0-.58.86,2.92,2.92,0,0,0,1-.25c.43-.17.88-.35,1.35-.52a1.16,1.16,0,0,1,.23.42c.06.19,0,.33-.23.42-.6.25-1.21.5-1.83.74a2,2,0,0,0-1.25,1.25c-.26.34-.37.57-.33.68s0,.2-.19.28a3,3,0,0,0,.55-.19.46.46,0,0,1,.54.13,2.6,2.6,0,0,1-1.22,1,1.48,1.48,0,0,0-.13.61,1.91,1.91,0,0,1-.12.68,4.06,4.06,0,0,0,.83-.06,2,2,0,0,1-.48,1,2.25,2.25,0,0,1-.61.39c.38.42.67.61.87.54a1.24,1.24,0,0,1,.61,0,2.17,2.17,0,0,0-1,.71.58.58,0,0,1-.58.32,1.3,1.3,0,0,0,0,1,1.42,1.42,0,0,1,.06.94.58.58,0,0,0,.62-.1,1,1,0,0,1,.73-.23.52.52,0,0,0,.13.42q.13.1,0,.42a1.24,1.24,0,0,0-.77.42,2.11,2.11,0,0,1-.77.54.73.73,0,0,1,.16.68.68.68,0,0,0,.1.61c.08-.13.37-.19.86-.19a4.34,4.34,0,0,0,1-.07c.09.35-.09.61-.51.81a2.86,2.86,0,0,1-1.1.29c0,.42,0,.66-.09.7a1.8,1.8,0,0,0-.23.2.94.94,0,0,0,.87.45.49.49,0,0,1,.61.38.55.55,0,0,1-.19.55,5.37,5.37,0,0,1-.61.45,2.8,2.8,0,0,0-.61.51.74.74,0,0,0-.13.74,5.43,5.43,0,0,1,.93,0,.34.34,0,0,1,.29.29.77.77,0,0,1,.45-.19.26.26,0,0,1,.26.19,1.29,1.29,0,0,1-.42.61l-.58.45a5.2,5.2,0,0,0-.55.51,1.19,1.19,0,0,0-.25.81,1.56,1.56,0,0,0,.93,0,.48.48,0,0,1,.67.29.44.44,0,0,1,0,.49,1.64,1.64,0,0,1-.42.41c-.38.09-.6.17-.64.26a.38.38,0,0,1-.26.19,1.13,1.13,0,0,0,0,.68,1.36,1.36,0,0,1,.16.42,1.11,1.11,0,0,0,.68-.1.5.5,0,0,1,.61.1.59.59,0,0,1-.55.35,1.69,1.69,0,0,0-.67.16,2.31,2.31,0,0,1,0,.64,1.35,1.35,0,0,0,.1.65.3.3,0,0,0,.32.06.62.62,0,0,1,.38,0c-.13-.3-.09-.51.1-.64a3.37,3.37,0,0,0,.48-.39c.17.3.19.48.07.55a1.36,1.36,0,0,0-.33.22.38.38,0,0,1-.16.52.6.6,0,0,0-.29.51c.48.22.67.34.58.39s-.1.13-.06.25a16,16,0,0,0,2.09,1.64,4.12,4.12,0,0,0,3,.55,5.38,5.38,0,0,0,2.18-.74A13.71,13.71,0,0,0,85.12,51a14.55,14.55,0,0,1,1.25-1.83,5.9,5.9,0,0,0,1.06-2,1.72,1.72,0,0,0,0-.54,1.09,1.09,0,0,1,.1-.55,1.19,1.19,0,0,1,.19-.35,1.27,1.27,0,0,0,.2-.36,5.79,5.79,0,0,0,0-1.18A4.16,4.16,0,0,1,88,42.83a4.92,4.92,0,0,1,.16-.61,1.36,1.36,0,0,0,0-.74,3.57,3.57,0,0,1-.71.38.8.8,0,0,1-.58-.25,1.67,1.67,0,0,1-.38-.58,2.14,2.14,0,0,1,.64-.55,3.55,3.55,0,0,0,.68-.51,2,2,0,0,0,.44-.68A1.33,1.33,0,0,0,88.2,38.33Zm-10.86,9a2,2,0,0,0-.19.58c-.05.21-.24.32-.58.32.13-.47.12-.7,0-.68l-.36,0C76.74,47.29,77.13,47.2,77.34,47.33ZM94,43.73c-.35,0-.56.15-.65.32s-.23.19-.45.06c0,.26-.09.41-.28.45a.82.82,0,0,0-.42.2.85.85,0,0,1-.39.32l-.51.19a2.35,2.35,0,0,1-.74.84,1,1,0,0,0-.48.64,2.48,2.48,0,0,0-.74.38.9.9,0,0,0-.36.78.94.94,0,0,0-.57.48c-.13.23-.39.31-.78.22a1,1,0,0,1-.22.45c-.11.13-.2.26-.29.39s-.17.27-.26.42a.66.66,0,0,0-.06.48,1,1,0,0,0-.42.48,1.43,1.43,0,0,0-.16.55A9.89,9.89,0,0,0,91,48.71a14.47,14.47,0,0,0,2.89-4.6ZM88.14,23.29a7.35,7.35,0,0,1-.77-.32,1.12,1.12,0,0,0-.71-.13.67.67,0,0,0,.32.67,1.67,1.67,0,0,1,.58.49,3.46,3.46,0,0,0,.48-.36A.46.46,0,0,0,88.14,23.29Zm.51.83c-.21-.12-.37-.09-.48.1a.3.3,0,0,1-.48.1.42.42,0,0,0,.54.35A.5.5,0,0,0,88.65,24.12Zm2.57,1.93c-.38-.3-.57-.49-.57-.58.29-.42.29-.65,0-.67a1.88,1.88,0,0,0-.78.09.9.9,0,0,1-.77.62.76.76,0,0,0-.7.61,1.1,1.1,0,0,1,.89-.2c0,.43-.21.69-.51.77a2.23,2.23,0,0,0-.77.39c0,.13.07.27.1.42a.33.33,0,0,0,.29.29c.51-.17.81-.36.89-.55s.28-.24.58-.16c0-.21,0-.33.16-.35a.67.67,0,0,0,.36-.16,2.23,2.23,0,0,0-.39-.49c-.08-.06-.23,0-.45,0,.39-.3.69-.39.9-.26A1.47,1.47,0,0,0,91.22,26.05Zm-1.73-1.16a.94.94,0,0,0-.77-.22c-.22.06-.32.27-.32.61a1.54,1.54,0,0,1,.51-.26Zm6,14.6-.84.19a5.51,5.51,0,0,0-.58.19.59.59,0,0,1-.48.68,4,4,0,0,1-1.06.16,3.67,3.67,0,0,1-.39.67,2.58,2.58,0,0,0-.25.42,2.13,2.13,0,0,1-.94.13c-.19,0-.28,0-.28.13.34.47.57.66.7.58s.24-.09.32,0a3.34,3.34,0,0,0-.74.7c-.06.13-.2.17-.41.13a3,3,0,0,1-1.67,1.22.75.75,0,0,0-.17.61.48.48,0,0,1-.28.55,3,3,0,0,0,2.41-.74A7,7,0,0,1,93,43.73.8.8,0,0,1,94,43a.44.44,0,0,1,.22-.58,1.69,1.69,0,0,0,.55-.45c-.22-.3-.24-.47-.07-.51s.22-.11.13-.19a3,3,0,0,0-.7.19.46.46,0,0,1-.52-.07,2.65,2.65,0,0,1,.81-.28,2,2,0,0,0,.8-.36,1,1,0,0,1,.09-.67A1,1,0,0,0,95.47,39.49Zm.64-5.92c-.13-.08-.17-.23-.13-.45a1,1,0,0,0-.06-.58,2.74,2.74,0,0,0-1.64.94,1.07,1.07,0,0,1-1.13.48,2.52,2.52,0,0,0-.19.35.59.59,0,0,1-.26.29,2.33,2.33,0,0,0-.61.35,2.56,2.56,0,0,1-.42.33,3.25,3.25,0,0,0-.45.32A.7.7,0,0,0,91,36c.08-.21.08-.34,0-.38s-.15-.15-.2-.32a3.88,3.88,0,0,1,.71-.07c.26-.34.54-.69.84-1.06a1.23,1.23,0,0,1,1.22-.42.91.91,0,0,0,.13-.51c0-.21.12-.34.38-.38,0-.26,0-.36-.22-.29s-.34,0-.42-.1a5.6,5.6,0,0,1,1-.26.79.79,0,0,1,.61,0,.24.24,0,0,0,.36-.06.88.88,0,0,1,.16-.48.56.56,0,0,0,.09-.36,1.53,1.53,0,0,1-.19-.45,2.64,2.64,0,0,0-.19-.51,5.81,5.81,0,0,1-.61.06c-.11,0-.14-.06-.1-.19l.26-.39c.08-.12,0-.23-.13-.32a.55.55,0,0,0-.42.13.32.32,0,0,1-.29.13c.35-.64.37-1,.07-1.06a2.83,2.83,0,0,0-1,0,2,2,0,0,1,.26-.77.91.91,0,0,0-.29-.36,1.58,1.58,0,0,1-.29-.22.87.87,0,0,0-.42-.65,1.25,1.25,0,0,0-.61-.09,1.94,1.94,0,0,0-.7.22l-.65.32a1.13,1.13,0,0,1-1,.45c.34.48.67.67,1,.58s.39,0,.22.32c-.13-.21-.24-.24-.32-.09a.33.33,0,0,1-.39.16.88.88,0,0,1-.38-.23.55.55,0,0,0-.26-.16,3.55,3.55,0,0,0,.52.55s0,.07,0,.16a3.64,3.64,0,0,0-.62.32,2.73,2.73,0,0,1-.61.32c.09.43.14.68.16.74a.3.3,0,0,0,.17.16,3.85,3.85,0,0,0,1.6-.74,4,4,0,0,1,1.61-.74c-.26.48-.47.74-.64.81l-.58.22a2,2,0,0,0-.58.65.65.65,0,0,1-.26.32c-.17.25-.33.5-.48.74a1.19,1.19,0,0,1-.67.48,2.1,2.1,0,0,0,.06,1,4.84,4.84,0,0,1,.58-.19.53.53,0,0,1,.51.19c.09-.3.26-.44.52-.42a.45.45,0,0,0,.51-.28,2.34,2.34,0,0,0-.38,0,.59.59,0,0,1-.33,0,1.51,1.51,0,0,1,.81-.42,2.4,2.4,0,0,0,.87-.36q.38-.12.48,0a.39.39,0,0,0,.35.13,2.17,2.17,0,0,1,.42-.83c.1-.09.22-.05.35.13l-.32.32a1.64,1.64,0,0,0-.22.25,1.86,1.86,0,0,1-.23.26q-.14.13-.51,0a1,1,0,0,1-.84.13,4.79,4.79,0,0,1-.9,1.06,5,5,0,0,1-1,.48c.08.3.2.43.35.39a1.63,1.63,0,0,1,.35-.07c-.25.26-.5.5-.74.71a2,2,0,0,1-.73.45.8.8,0,0,1,.06.71,1.33,1.33,0,0,0,.74-.07c.19-.08.39-.17.61-.25.21.25.36.35.45.29s.15,0,.19.09a.31.31,0,0,0-.16.32c0,.13.05.3.1.52a12.75,12.75,0,0,1-1.29-.45c.22.3.37.43.45.38a.62.62,0,0,1,.26-.06,2.21,2.21,0,0,1-.35.8,1.23,1.23,0,0,1-.62.42,2.64,2.64,0,0,0-.19.51,3.25,3.25,0,0,1-.19.58c.38.43.63.5.74.2a.56.56,0,0,1,.67-.39.43.43,0,0,1,.26-.39,1.13,1.13,0,0,1,.48-.12.52.52,0,0,1,.36.12c.08.09.06.22-.07.39-.43,0-.67.1-.74.29a.68.68,0,0,1-.41.42c-.26.34-.47.51-.62.51s-.22.09-.22.26a3.78,3.78,0,0,1-.16.93,1.65,1.65,0,0,0-.13.55c0,.21,0,.43,0,.64a.86.86,0,0,1-.13.51,1.35,1.35,0,0,1,.67-.35Q90,42.32,90,42a1.83,1.83,0,0,0,.45-.16,1.25,1.25,0,0,1,.52-.09c0-.35.2-.56.61-.65a.87.87,0,0,0,.74-.58q.38.08.51-.09a1.28,1.28,0,0,1,.32-.29.76.76,0,0,0,.39-.26c0-.08.15-.13.32-.13a.31.31,0,0,1,.13-.45L94.5,39c.52-.43.82-.6.9-.52,0-.26,0-.42.13-.48a1.64,1.64,0,0,0,.32-.35c-.34-.09-.53-.1-.58,0a.27.27,0,0,1-.25.1A2.34,2.34,0,0,0,96,37,1.34,1.34,0,0,0,96,35.76a.55.55,0,0,0-.41,0,.54.54,0,0,1-.42,0,1.36,1.36,0,0,1-.64.61,1.9,1.9,0,0,1-.84.23,3.84,3.84,0,0,1-.29.67c-.11.2-.33.25-.67.16,0,.26-.26.43-.65.52a.8.8,0,0,0-.51-.16,1.12,1.12,0,0,0-.32.09,1.23,1.23,0,0,1,1.41-.51.83.83,0,0,0,.45-.77c.09,0,.18-.07.29-.2l.35-.38a1.2,1.2,0,0,1,.45-.29.66.66,0,0,1,.58.1,2.16,2.16,0,0,1,.71-.94.68.68,0,0,0,.39-.48c-.22-.13-.25-.26-.1-.42A1,1,0,0,0,96.11,33.57Zm-6.49-9.51a.59.59,0,0,0-.52-.19c-.25,0-.36.13-.32.38a1.27,1.27,0,0,0,.48.07C89.5,24.32,89.62,24.23,89.62,24.06ZM90.77,42.7c-.34-.13-.59-.1-.74.1a1.21,1.21,0,0,1-.61.41,1.4,1.4,0,0,0,.78,0c.08-.06.06-.18-.07-.35Zm1.1-14.78a.68.68,0,0,0-.39.09.49.49,0,0,1-.32.1C91.63,27.77,91.87,27.7,91.87,27.92Zm.38,7.9a.39.39,0,0,1-.22.26l-.32.1a.69.69,0,0,0-.29.12.24.24,0,0,0-.07.29c0-.3,0-.5.16-.61a3.1,3.1,0,0,1,.55-.29ZM94.18,42a.68.68,0,0,0-.32.1.39.39,0,0,1-.39,0c0-.17.11-.27.32-.29S94.14,41.82,94.18,42Zm.13-7.2c0,.22-.14.31-.29.29a.34.34,0,0,0-.35.16c0-.12.08-.22.25-.29A2.76,2.76,0,0,0,94.31,34.79Z" transform="translate(-0.07 -0.15)"/><path class="cls-1" d="M127,28a13.54,13.54,0,0,1-.74,1.67,3.89,3.89,0,0,1-1.13,1.29,3.66,3.66,0,0,1-1.22.77c-.39.13-.76.25-1.12.35a4.7,4.7,0,0,1-1.1.19A1.92,1.92,0,0,1,120.6,32a23.69,23.69,0,0,1-1.71-1.89,3.44,3.44,0,0,1-.67-2.54,1.73,1.73,0,0,1,.16-.74,2,2,0,0,0,.16-.87,4.6,4.6,0,0,0,.55-.51,1.88,1.88,0,0,0,.35-.71,3.54,3.54,0,0,0,1.22-.58,10.13,10.13,0,0,1,1.09-.7.7.7,0,0,0-.48-.39,1.56,1.56,0,0,0-.61,0l-.7.13a1.29,1.29,0,0,1-.71-.07c-.13.35-.41.43-.84.26a7,7,0,0,1-.74.65,1.87,1.87,0,0,1-.86.38,1.41,1.41,0,0,1-.49.51,3.25,3.25,0,0,1-.61.33,1.06,1.06,0,0,0-.45.51c-.08.22-.28.32-.58.32a.77.77,0,0,1-.35.87,1.92,1.92,0,0,0-.67.8.77.77,0,0,1,.22,1,1.28,1.28,0,0,1-.67.77c0,.56-.07,1.05-.07,1.48a1,1,0,0,0,.52,1c-.13.39-.33.61-.58.65a.68.68,0,0,0,.32.64,14.63,14.63,0,0,0,.19,2.44,3,3,0,0,1-.32,2.06,1,1,0,0,1,.16.45.5.5,0,0,0,.29.39,4.36,4.36,0,0,0-.39,1.38l-.12,1.38a2.32,2.32,0,0,0,.41-.06.29.29,0,0,0,.23-.39,1.48,1.48,0,0,1,1.16.19,1.6,1.6,0,0,1-.29.74,2,2,0,0,1-.52.48,5.56,5.56,0,0,0-.54.42,2.52,2.52,0,0,0-.45.48.94.94,0,0,1-.07.78c-.13.17-.11.42.07.77a.49.49,0,0,0,.45-.07.63.63,0,0,1,.45-.13c.42.48.56.82.41,1a.55.55,0,0,1-.67.2,1.07,1.07,0,0,1-.64,1c0,.65,0,1.2.06,1.67s.11,1.08.19,1.8a1.86,1.86,0,0,1,.36.71.9.9,0,0,1-.1.52c.26.21.5.4.74.57a2.17,2.17,0,0,1,.61.78,3.13,3.13,0,0,0,1.48.28,2.91,2.91,0,0,1,1.41.29,6.15,6.15,0,0,1,1.29-.25l1.41-.13a2,2,0,0,1,.48.7,1.46,1.46,0,0,1,0,.91,8.59,8.59,0,0,0-3.22.06,9.18,9.18,0,0,1-1.54-.26c-.51-.13-1-.23-1.54-.32l-3.15,0a27.73,27.73,0,0,1-3-.09,1.46,1.46,0,0,1-.84.16,2.34,2.34,0,0,0-.9.09c-1.16,0-2.31-.1-3.47-.19a12.94,12.94,0,0,0-3.41.19c-.51-.21-.79-.28-.83-.19a.21.21,0,0,1-.19.13,5.51,5.51,0,0,1-.81-.35c-.28-.15-.35-.46-.22-.94,1-.17,2-.36,2.92-.57s1.92-.45,2.86-.71a4.49,4.49,0,0,1,.45-.26c.17-.08.24-.28.19-.58a2.83,2.83,0,0,1-.61-.64,1.87,1.87,0,0,0-.16-.39c.17-.25.37-.51.58-.77a3.86,3.86,0,0,0,.55-.83,3.11,3.11,0,0,0,.29-.94,2,2,0,0,0-.2-1.06c.13-.21.17-.38.1-.51a2.2,2.2,0,0,1-.16-.51,3.53,3.53,0,0,0,.26-.68,5,5,0,0,0,.06-.93c-.34-.09-.57-.05-.67.1a.56.56,0,0,1-.49.22,1.17,1.17,0,0,1-.16-.58l.16-.7a4.53,4.53,0,0,0,.78-.71c.12-.17.25-.35.38-.55a1.65,1.65,0,0,0,.26-.67,2.61,2.61,0,0,0-.07-1,1.6,1.6,0,0,1-.77-.32,4,4,0,0,1,.65-1.48.51.51,0,0,1-.2-.64c.09-.3.26-.45.52-.45-.13-.09-.19-.18-.16-.29a2.23,2.23,0,0,1,.09-.32.68.68,0,0,0,.07-.29c0-.08-.07-.17-.2-.26a.63.63,0,0,0,.39-.57,1.18,1.18,0,0,0-.13-.78c-.34.35-.49.45-.45.33s0-.22-.26-.26a11.18,11.18,0,0,0,.78-1.19,2.27,2.27,0,0,0,.25-1.51,1,1,0,0,0-.7-.19c-.09-.48,0-.79.19-.94a5.1,5.1,0,0,0,.64-.54,3.35,3.35,0,0,0-.1-2c-.23-.58-.46-1.1-.67-1.57a3.89,3.89,0,0,1-.8-.77,11,11,0,0,0-.81-.9,2.47,2.47,0,0,0-1.7-.9,13.7,13.7,0,0,0-2.35-.07,1.46,1.46,0,0,1-.19-.42,1.4,1.4,0,0,0-.19-.41,1.55,1.55,0,0,1,.93-.42c.41-.07.82-.12,1.25-.16a3.08,3.08,0,0,0,1.51.38,10.31,10.31,0,0,0,1.58-.12,1.52,1.52,0,0,0,.48-.23.79.79,0,0,1,.48-.16,2.72,2.72,0,0,1,.9,0,3.94,3.94,0,0,0,.9.1c.6-.09,1.18-.18,1.74-.29a15.37,15.37,0,0,1,1.73-.23c.43,0,.86-.09,1.29-.16l1.28-.16c.3.13.45.3.45.52a3.05,3.05,0,0,1-.09.7,4.27,4.27,0,0,0-.13.74.54.54,0,0,0,.29.55,2.48,2.48,0,0,0,2-.61,6.2,6.2,0,0,1,2.6-1.06,12.43,12.43,0,0,1,1.48-.61,8.29,8.29,0,0,1,1-.26,2.5,2.5,0,0,1,.86,0,1.36,1.36,0,0,1,.81.51,1.64,1.64,0,0,1,1.06.2,4.05,4.05,0,0,1,.77.61,7.26,7.26,0,0,1,.67.77,3,3,0,0,0,.71.67,2.08,2.08,0,0,0,.39,1.61,2.27,2.27,0,0,1,.45,1.54.51.51,0,0,0,.19.29A1.28,1.28,0,0,1,127,28Zm-18.84-4.63a11,11,0,0,1-1.89.1,4.34,4.34,0,0,0-1.77.29c.34.3.55.39.61.29a.54.54,0,0,1,.35-.23c.65,0,1.19,0,1.64,0A1.13,1.13,0,0,0,108.19,23.35Zm3.86,19.54a7.67,7.67,0,0,1-1.35.26,1.59,1.59,0,0,0-.64.13A16.42,16.42,0,0,1,107,45.53a.93.93,0,0,1-.35.45,3.35,3.35,0,0,0-.42.19,1.45,1.45,0,0,1-.06.55,2,2,0,0,0-.13.67.58.58,0,0,0,.58.16,1,1,0,0,0,.45-.35c.12-.17.25-.33.38-.48a.59.59,0,0,1,.45-.23,2.55,2.55,0,0,0,1.09-.93,1.2,1.2,0,0,1,.84-.61,1.24,1.24,0,0,1,.42-.55,1.49,1.49,0,0,1,.61-.29c.34-.08.53-.17.58-.25a.86.86,0,0,1,.19-.26c-.09-.17-.06-.29.1-.35A.81.81,0,0,0,112.05,42.89Zm-1.93-5.46c-.09-.26-.27-.29-.55-.1a.84.84,0,0,1-.8.16,1.63,1.63,0,0,1-1,.71,2.54,2.54,0,0,0-1.12.64.93.93,0,0,1-.45.71.77.77,0,0,1,.13.45.77.77,0,0,0,.13.45q.57-.06.9-.06a1,1,0,0,1,.13-.9,3.1,3.1,0,0,0,.77-.42.7.7,0,0,0,.32-.68,2,2,0,0,0,.8-.64C109.62,37.45,109.86,37.34,110.12,37.43Zm2.31,1.09a1.58,1.58,0,0,0,.13-1,8,8,0,0,0-.13-1,1.82,1.82,0,0,0-.67.32,3.74,3.74,0,0,1-.55.39,5.91,5.91,0,0,0-1.19.9,4.27,4.27,0,0,1-1.06.77c0,.47-.32.75-1,.83,0,.47-.26.71-.64.71,0,.22,0,.36-.1.45l-.35.26a3.27,3.27,0,0,0-.39.29.57.57,0,0,0-.19.48l1.06-.1a1,1,0,0,1,.61.1c-.13.08-.33.2-.61.35a5.49,5.49,0,0,0-.71.45,1.05,1.05,0,0,0-.38.52c-.07.19,0,.37.29.54a.66.66,0,0,0,.35-.35.79.79,0,0,1,.29-.36c.38.43.5.68.35.74a.28.28,0,0,1-.35,0,.45.45,0,0,1,.09.39.42.42,0,0,0,.1.38,1.91,1.91,0,0,0,1.16-1.09q.32.14.45,0a1.08,1.08,0,0,1,.38-.29,2.73,2.73,0,0,1,1.22-.55,3,3,0,0,0,1.16-.41,2.37,2.37,0,0,0,.42-.61,2.19,2.19,0,0,0,.19-.74,1.46,1.46,0,0,0-.09-.68.6.6,0,0,0-.45-.35,1.69,1.69,0,0,1-.58.7,5,5,0,0,1-.9.39.68.68,0,0,1-.36.48.66.66,0,0,1-.61,0c0,.43-.12.68-.22.74a1.36,1.36,0,0,1-.42.16,4.26,4.26,0,0,1-.48.61,2.34,2.34,0,0,1-.35.29,3.68,3.68,0,0,0-.42-.51s0,0,0-.13a.61.61,0,0,0,.48-.06.71.71,0,0,1,.48-.13,3.72,3.72,0,0,0-.55-.84c-.1-.08-.07-.15.1-.19a.84.84,0,0,1,.42,0,.46.46,0,0,0,.41-.1,4,4,0,0,0,1.16-.93,1.72,1.72,0,0,1,1.09-.61.79.79,0,0,1,.62-.68A1.07,1.07,0,0,0,112.43,38.52Zm-.51-8.23c-.21-.17-.35-.16-.42,0s-.2.22-.42.09a18.48,18.48,0,0,1-2,1.54,5.12,5.12,0,0,1-2,.71,5.82,5.82,0,0,0-.45,1.06,1.68,1.68,0,0,0,0,1.13,2.24,2.24,0,0,0,1.51-.32,4.33,4.33,0,0,1,1.19-.65,4.69,4.69,0,0,1,.61-.51,1.24,1.24,0,0,0,.48-.58,1.86,1.86,0,0,0,1.35-.77A2,2,0,0,0,111.92,30.29Zm-3.34-4.17a1.81,1.81,0,0,0-.52.06l-.35.13-.35.1a1,1,0,0,1-.45,0c0,.22,0,.35-.13.39s-.19.15-.19.32a.45.45,0,0,0,.57-.13c.13-.17.35-.15.65.07,0-.3,0-.48.29-.52A.61.61,0,0,0,108.58,26.12Zm3,23.26a1.32,1.32,0,0,0-.46,0,.37.37,0,0,1-.25,0,1.26,1.26,0,0,0-.71-.42,2.29,2.29,0,0,0-.64,0,3.3,3.3,0,0,1-.55.65.76.76,0,0,1-.74.13l-.87.77a1,1,0,0,1-.67.25c0,.26.2.36.48.29s.44-.16.48-.29a2,2,0,0,0,1-.64q.65-.31.93-.42a1.17,1.17,0,0,0,.48-.29.82.82,0,0,0,.77.33A1.61,1.61,0,0,0,111.54,49.38Zm1.15,2a1.13,1.13,0,0,0-.32-.49l-.45-.35a11.07,11.07,0,0,1-1.41.13,1.48,1.48,0,0,1-.84.29,1.5,1.5,0,0,0-.77.22.84.84,0,0,1-.29.49.53.53,0,0,1-.67.09,1.2,1.2,0,0,1-.74.45.67.67,0,0,0-.55.52c.13.25.37.33.74.22a3.69,3.69,0,0,0,1.06-.51c.34-.24.68-.46,1-.68a2.54,2.54,0,0,1,1.09-.38,1.39,1.39,0,0,0,.68.29,1.43,1.43,0,0,1,.48,0q.06-.51.42-.39A.85.85,0,0,0,112.69,51.38Zm-.51-26a6.26,6.26,0,0,0-1.38.39c-.41.17-.83.36-1.26.58A1.24,1.24,0,0,1,109,27.5a7.88,7.88,0,0,0-1.13.93c.17.21.21.39.13.51a2.37,2.37,0,0,1-.26.33,1,1,0,0,1-.06-.65.67.67,0,0,1,.38-.58c.17-.55.2-.83.07-.83a.41.41,0,0,1-.32-.13.84.84,0,0,1-.58.48c-.26.07-.41.33-.45.81a1.77,1.77,0,0,0,.22.9,1,1,0,0,0,.42.45c.52-.13.73-.22.64-.26s-.08-.11,0-.19a.63.63,0,0,1,.33,0,.92.92,0,0,0,.38,0,2.64,2.64,0,0,1,1-.78.77.77,0,0,1-.58.74,2.17,2.17,0,0,0-.9.61,11.4,11.4,0,0,0,1.51-.32,1.35,1.35,0,0,0,.93-.9c-.22-.13-.38-.1-.48.07a.25.25,0,0,1-.42.06l.64-1.54c.22-.52.69-.71,1.42-.58-.09-.34-.06-.57.09-.67A.72.72,0,0,0,112.18,25.34Zm-3.35,23.08a.37.37,0,0,0-.41-.19,2,2,0,0,0-.48.22l-.52.32a.93.93,0,0,1-.51.16c.34.39.66.43,1,.13A2.74,2.74,0,0,1,108.83,48.42Zm-.44-17.48a4.43,4.43,0,0,0-.78.16c-.21.06-.42.14-.64.22.22.35.4.43.55.26a1.5,1.5,0,0,1,.54-.39Zm.77-5.66a7.43,7.43,0,0,0-1.35.19.79.79,0,0,0-.58.52c.26,0,.5-.1.74-.16a.72.72,0,0,0,.48-.42,2.62,2.62,0,0,0,.64,0S109.16,25.37,109.16,25.28Zm3.34,9.19c-.43-.13-.73-.07-.9.16s-.47.31-.9.23c-.6.43-1.17.87-1.7,1.32a3.43,3.43,0,0,1-1.51.8c.38.34.7.41,1,.19a.68.68,0,0,1,.77-.13c-.09-.38,0-.58.32-.58a2.84,2.84,0,0,0,.84-.12c.17-.35.35-.52.54-.52a1.14,1.14,0,0,0,.55-.13,4.11,4.11,0,0,1,.77-.41C112.5,35.17,112.58,34.9,112.5,34.47Zm-.26,9.58q-.39-.19-.51.06a5.47,5.47,0,0,0-.26.65,3.1,3.1,0,0,0-1.12.8,3.23,3.23,0,0,1-1.13.8c-.3.26-.57.47-.8.65s-.46.32-.68.45a1.71,1.71,0,0,0,.74-.17,1,1,0,0,1,.61-.09,4.13,4.13,0,0,0,1.13-.77.82.82,0,0,1,.93-.2c.17-.55.47-.83.9-.83a1,1,0,0,0,.16-.61A3.26,3.26,0,0,1,112.24,44.05Zm-1.54,3.34a.71.71,0,0,0-.55,0,1.65,1.65,0,0,1-.74,0c-.43.35-.6.53-.51.55a.29.29,0,0,1,.19.22,1.07,1.07,0,0,0,.9-.32A1.41,1.41,0,0,1,110.7,47.39Zm.06-13.69a1.56,1.56,0,0,0-1,.39,5.47,5.47,0,0,0-.81.77,4.28,4.28,0,0,0,1.13-.39A1.41,1.41,0,0,0,110.76,33.7Zm-.77,3a.83.83,0,0,1-.45,0c-.08,0-.17,0-.25.19a.53.53,0,0,0,.41.13C109.9,37,110,36.87,110,36.66Zm1-12.28a.81.81,0,0,0-.77.1,6.11,6.11,0,0,1-.51.41.85.85,0,0,0,.83,0A1.44,1.44,0,0,0,111,24.38Zm.32,5.46a4.33,4.33,0,0,0-.61-.12c-.06,0-.1,0-.1.12a.39.39,0,0,1,.42,0C111.16,29.93,111.26,29.93,111.34,29.84Zm1.48-7.07a5.62,5.62,0,0,0-1.16,0,1.27,1.27,0,0,0-.9.52c.52.25.83.31.94.16a.7.7,0,0,1,.48-.29q.45.25.45,0A.58.58,0,0,1,112.82,22.77Zm-.39,26.81a.44.44,0,0,1-.19-.36.28.28,0,0,0-.19-.29,1.45,1.45,0,0,1-.39.55,2,2,0,0,0-.45.61l.65-.13A1,1,0,0,0,112.43,49.58Zm-.19-2.06a.72.72,0,0,0-.77-.06c-.09.38,0,.56.16.54a.68.68,0,0,1,.55.23.37.37,0,0,0,.09-.32A2.56,2.56,0,0,1,112.24,47.52Zm8.23-19c-.22.22-.42.27-.61.17a.56.56,0,0,0-.61,0,1,1,0,0,0,.51,1c-.08-.39,0-.63.23-.71A.81.81,0,0,0,120.47,28.49Zm5.21-1a2.66,2.66,0,0,0-.17-1.19,1.82,1.82,0,0,0-.73-1,1.92,1.92,0,0,1-.87.36,1.3,1.3,0,0,0-.87.54.6.6,0,0,0,.68-.16.92.92,0,0,1,.8-.22.66.66,0,0,1,.29.42.47.47,0,0,0,.29.35.9.9,0,0,0-.45.32,1,1,0,0,1-.39.32.33.33,0,0,0-.38,0,3.66,3.66,0,0,0-.39.32,3.62,3.62,0,0,1-.42.36.42.42,0,0,1-.48,0c0,.22-.17.36-.51.45a2.32,2.32,0,0,0-.78.32c-.08.39,0,.54.17.45a.37.37,0,0,1,.48.13q-.26.51-.39.42c-.08-.07-.19-.06-.32,0l-.83.58a1.42,1.42,0,0,0,1.18.74,6.49,6.49,0,0,0,1.64-.16,6.52,6.52,0,0,0,1.13-1.16,10.18,10.18,0,0,1,1.06-1.22c-.17-.17-.3-.26-.39-.26s-.08-.13,0-.38C125.2,27.83,125.42,27.7,125.68,27.53Zm-2.06,1.41a.91.91,0,0,1-.68.49,1.86,1.86,0,0,0-.86.41.86.86,0,0,0,.41-.54,1,1,0,0,1,.36-.55,1.92,1.92,0,0,0,.64.16A.11.11,0,0,1,123.62,28.94Z" transform="translate(-0.07 -0.15)"/><path class="cls-1" d="M157.69,43.6a1.88,1.88,0,0,1-.07.9c-.08.21-.15.38-.19.51a2,2,0,0,1-.29.65l-.23.13a8.09,8.09,0,0,1-.12,1.47c-.09.43-.28.69-.58.77a.59.59,0,0,1,.06.49c0,.23-.23.33-.58.29a.91.91,0,0,1-.32.77c-.26,0-.4,0-.42.19a4.36,4.36,0,0,0,0,.51,12.18,12.18,0,0,0-1,.94,2.93,2.93,0,0,1-1.16.74,3.53,3.53,0,0,1-.67.64,1.21,1.21,0,0,1-.55.13,4.28,4.28,0,0,1-.71.51.78.78,0,0,1-1,0,1.11,1.11,0,0,1-.58.55,5,5,0,0,1-.87.25l-.93.2a2.38,2.38,0,0,0-.84.35c-.68.09-1.23.16-1.64.23a6.66,6.66,0,0,1-1.28.06c-.45,0-.9-.05-1.35-.1a6.51,6.51,0,0,0-1.25,0,9.08,9.08,0,0,1-2-.57,6.92,6.92,0,0,1-1.25-.78c-.39-.3-.77-.61-1.16-.93a6,6,0,0,0-1.22-.8,1.69,1.69,0,0,0-.77-.77l-1-.52a1.91,1.91,0,0,0-.71-1.6,1.25,1.25,0,0,1-.54-.16l-.23-.23a.68.68,0,0,0,0-1,1.5,1.5,0,0,1-.71-.23.41.41,0,0,1-.16-.38,1.86,1.86,0,0,1,.16-.49,5.09,5.09,0,0,0,.26-.57,3.16,3.16,0,0,1-.64-1.16,2.55,2.55,0,0,0-.64-1.09c.08-.26,0-.32-.16-.17a.73.73,0,0,1-.62.17,2.53,2.53,0,0,0,.23-.26c.06-.09.2-.13.42-.13,0-.34.07-.68.09-1s-.2-.54-.67-.67a.73.73,0,0,0,.19-.77.42.42,0,0,1,.32-.58c-.55.08-.84.07-.86,0s-.06-.23-.1-.36c.3,0,.47-.13.51-.25s.22-.24.52-.33a3.45,3.45,0,0,1-.13-.86,1,1,0,0,1,.13-.55c-.3-.34-.4-.52-.29-.55a.29.29,0,0,0,.22-.16,1.93,1.93,0,0,0,.16-1.06.31.31,0,0,1,.17-.42c-.18-.08-.21-.18-.1-.28s.07-.25-.1-.42A4.85,4.85,0,0,0,131,33.6a7,7,0,0,0,.16-.9c.05-.32.08-.62.1-.9a1.73,1.73,0,0,1,.22-.73c-.21-.3-.26-.53-.16-.68a2.18,2.18,0,0,0,.29-.55,2.79,2.79,0,0,1,.68-.38.2.2,0,0,0,.16-.07l.42-1c.1-.26.21-.51.32-.77a4.69,4.69,0,0,1,.35-.71,1.07,1.07,0,0,1,.64-.45,2,2,0,0,1,.33-1c.17-.24.36-.49.57-.74a5.69,5.69,0,0,0,1.93-1.19,5.87,5.87,0,0,1,1.87-1.19c.94-.43,1.87-.81,2.79-1.13a6.32,6.32,0,0,1,2.73-.35,2.5,2.5,0,0,1,1.23-.26.69.69,0,0,0,.19.32.94.94,0,0,1,.19.32c.26.09.47.16.64.2a1.76,1.76,0,0,0,.65,0,1.17,1.17,0,0,0,.64.22.58.58,0,0,1,.51.29,3.92,3.92,0,0,1,1.61.32,6.88,6.88,0,0,1,1.32.81c.41.32.82.64,1.25,1a4.93,4.93,0,0,0,1.42.74,1.25,1.25,0,0,0,.06.9,2.78,2.78,0,0,0,.48.68,3.73,3.73,0,0,1,.52.61,1.19,1.19,0,0,1,.22.7c.09.13.18.26.29.39a2.49,2.49,0,0,1,.29.45c0,.43,0,.66.26.71q.31,1.41.45,2.28a9.22,9.22,0,0,0,.58,2c-.26.43-.34.64-.23.61a.19.19,0,0,1,.23.1c0,.51-.07.84-.33,1q.78.39.36.81a2.17,2.17,0,0,0-.55.8,1.38,1.38,0,0,0-.06.93.69.69,0,0,1-.2.74,1.68,1.68,0,0,0-1.67.13,10.32,10.32,0,0,0-1.54-.26,3,3,0,0,0-1.48.26,2,2,0,0,1-1.51.16,7.16,7.16,0,0,0-1.57-.29c-1.2,0-2.39,0-3.57.07a21.38,21.38,0,0,1-3.63-.2,1.61,1.61,0,0,1-.9.26h-1a2.3,2.3,0,0,0-.83.13.69.69,0,0,0-.42.64,4.11,4.11,0,0,1-.07,1,.41.41,0,0,0,.13.42v.93a2.1,2.1,0,0,1-.06.48A.9.9,0,0,1,139,43a.58.58,0,0,1-.48.7,3.71,3.71,0,0,1,.16.71,2.08,2.08,0,0,0,.16.64.42.42,0,0,1,.51,0,.5.5,0,0,1,.2.39.9.9,0,0,1-.17.48.52.52,0,0,1-.48.26.79.79,0,0,1,.26.57,2.14,2.14,0,0,0,.13.71c.21,0,.34,0,.38-.13s.15-.08.33,0c-.22.39-.24.62-.07.71s.19.24.07.45a2,2,0,0,0,.28,1.12,4.12,4.12,0,0,0,1,1.32c.6.52,1.17,1,1.7,1.55a3.34,3.34,0,0,0,2,.9,4,4,0,0,0,1.71-.13,12.6,12.6,0,0,1,1.89-.39,2.9,2.9,0,0,1,.84-.38c.3-.09.6-.16.9-.23a5.13,5.13,0,0,0,.87-.26,1.08,1.08,0,0,0,.61-.54,1.46,1.46,0,0,0,.8-.49,1.53,1.53,0,0,1,.87-.48.55.55,0,0,1,.35-.32c.15,0,.23-.21.23-.51a3,3,0,0,0,1-1.38,8.62,8.62,0,0,0,.58-1.84,5.31,5.31,0,0,0,0-1.73c-.11-.6-.21-1.14-.29-1.61a8.74,8.74,0,0,0,0-1.19.35.35,0,0,1,.29-.42q.13-.51.51-.57a1.24,1.24,0,0,1,.74.09,1.54,1.54,0,0,1,.58.45.71.71,0,0,1,.16.61,1.26,1.26,0,0,1,0,.93A.55.55,0,0,0,157.69,43.6Zm-20.25-2.7a.84.84,0,0,1,0-.9c-.09-.64-.14-1-.16-1.22a1.82,1.82,0,0,0-.16-.52.23.23,0,0,0-.29.07q-.11.14-.42.06a1.79,1.79,0,0,0-.35-.7.77.77,0,0,1-.23-.26,4.06,4.06,0,0,0,.9-.45,6.65,6.65,0,0,0,.52-.45,3.9,3.9,0,0,1-.07-1.19,5.31,5.31,0,0,0,0-1.13.7.7,0,0,1-.67,0c-.2-.11-.29-.12-.29,0s-.11.29-.45.23-.58,0-.71.1l.77.16a.26.26,0,0,1,.19.16,1.8,1.8,0,0,0-.54.32,2.11,2.11,0,0,1-.48.32,1.17,1.17,0,0,0,.93.13.85.85,0,0,1,.8.13,1.87,1.87,0,0,1-.77.8l-.84.42c0-.43.07-.62.2-.58s.21,0,.25-.06a2.45,2.45,0,0,1-.48,0l-.54-.09a1.44,1.44,0,0,0-.26.32c-.09.13,0,.26.13.39a2.58,2.58,0,0,1-.81.28,3.25,3.25,0,0,0-.61.16c.13.13.25.14.36,0s.22-.06.35.16.16.54.1.61a.94.94,0,0,1-.23.16,1.44,1.44,0,0,1-1.09-.26,3.25,3.25,0,0,1-.74.13c-.15,0-.25,0-.29-.13a1.89,1.89,0,0,1,.51-.32,1.33,1.33,0,0,1,.65.06c-.05-.21-.1-.34-.16-.38s-.1-.15-.1-.32c.47-.26.71-.35.71-.26s0,.13.13.13a5.12,5.12,0,0,1,.9-.06c-.09-.26-.06-.43.09-.52a.54.54,0,0,0,.23-.51c-.43.34-.65.43-.65.25s-.1-.21-.32-.13c0,.22-.06.36-.19.42a.58.58,0,0,1-.45,0c-.56,0-.88.22-1,.52a6.18,6.18,0,0,0-.55.87.72.72,0,0,1-.29.35c.3.17.43.28.39.32s-.07.15-.07.32a1.2,1.2,0,0,1,.64-.22.72.72,0,0,1,.52.09c-.26.52-.42.75-.48.71a.44.44,0,0,0-.23-.06.8.8,0,0,0,.45,1,4.46,4.46,0,0,1-.51.54,1.47,1.47,0,0,0-.39.74,2.87,2.87,0,0,1,.29.74,1.84,1.84,0,0,0,.1.42.51.51,0,0,0,.13.25c0,.05.15,0,.32-.12a1,1,0,0,1-.16.67c-.11.11-.12.36,0,.74a6.65,6.65,0,0,1,1,.32c0,.35-.09.51-.26.48s-.23.08-.19.29a.83.83,0,0,0,.77-.45c.43-.34.62-.56.58-.67s0-.18,0-.23a6.58,6.58,0,0,0,1,.07.5.5,0,0,0-.54-.32,1.8,1.8,0,0,1-.81-.2,1.34,1.34,0,0,1,.61-.35l.81-.23a1.83,1.83,0,0,1,.19-.61.26.26,0,0,1,.39-.09c-.13.38-.14.61,0,.67l.36.23-.32-.77a3.43,3.43,0,0,1,1.12-1A2.53,2.53,0,0,0,137.44,40.9Zm1-14.4a3.17,3.17,0,0,0-1.58.48,7.52,7.52,0,0,1-1.38.74c-.69.39-.92.67-.71.84a.84.84,0,0,1,.32.71l-.38.38a.78.78,0,0,1-.19.13q-.39.13-.39,0c0-.09-.11-.09-.32,0-.43.13-.64.28-.64.45a2.8,2.8,0,0,0,.06.55c0,.19.09.37.13.54a.87.87,0,0,0-.48.48.67.67,0,0,1-.68.36c0,.21-.09.45-.16.71a5.78,5.78,0,0,1-.22.7,1,1,0,0,1-.13.77,1.08,1.08,0,0,0-.13.78,1.33,1.33,0,0,1,.16.73.83.83,0,0,0,.1.55,1.19,1.19,0,0,1,.86-.26.75.75,0,0,0,.74-.32c.17-.34.22-.53.13-.58s-.11-.12-.06-.25a4.19,4.19,0,0,1,.7-.45,3.9,3.9,0,0,0,.71-.45.93.93,0,0,0,.58-.16.77.77,0,0,1,.51-.17.57.57,0,0,0,.45,0,1.36,1.36,0,0,0,.33-.22c.34-.3.55-.44.64-.42s.13,0,.13-.1a.86.86,0,0,1-.16-.77,1.11,1.11,0,0,0-.23-.9.93.93,0,0,0,.68-.74.91.91,0,0,0-.29-1,.87.87,0,0,0-.52.29,1.36,1.36,0,0,1-.51.35c.43-.6.86-.84,1.28-.71-.08-.43-.23-.66-.45-.7a9.92,9.92,0,0,1-1.22.9c.17-.3.24-.48.2-.52a.24.24,0,0,1-.07-.19,1.86,1.86,0,0,0,.68-.23c.06-.06.13-.14.22-.22.43.08.68,0,.74-.35a2.59,2.59,0,0,1,.23-.74.61.61,0,0,0-.71.32c-.13.25-.37.32-.71.19a2.16,2.16,0,0,1-.64.8.87.87,0,0,1-.9.1,3.67,3.67,0,0,1,.35-.51c.11-.13.29-.15.55-.07a.88.88,0,0,1,.13-.51c.08-.13.25-.17.51-.13,0-.26.07-.38.19-.35a.81.81,0,0,0,.45-.1,2.09,2.09,0,0,0,.65-.42A1,1,0,0,1,138.47,26.5Zm-3.92,13.11c-.26.31-.44.44-.55.42s-.16,0-.16.1c-.56-.13-.91-.14-1.06,0a1.44,1.44,0,0,1-.55.22.3.3,0,0,1,.26-.32c.17,0,.21-.17.13-.39a.4.4,0,0,0,.48.17,2.15,2.15,0,0,0,.48-.23A1.1,1.1,0,0,0,134.55,39.61Zm-.9,4.44a1.18,1.18,0,0,1-.65.38c-.08-.17-.05-.28.1-.35A1,1,0,0,1,133.65,44.05Zm.64.9c-.22,0-.35,0-.42-.13s-.2-.13-.42,0a.64.64,0,0,0,.39.16.64.64,0,0,1,.38.16Zm-.13.51c0-.21-.16-.3-.35-.25a.43.43,0,0,0-.36.25.25.25,0,0,0,.29.07A1.22,1.22,0,0,1,134.16,45.46Zm8.93,8.29a.66.66,0,0,0-.61-.51.69.69,0,0,1-.61-.58,1,1,0,0,1-.67-.58.68.68,0,0,0-.74-.38c0-.34-.16-.54-.35-.58a3.87,3.87,0,0,1-.61-.19q.31-.26.09-.87a2.44,2.44,0,0,0-.48-.87c-.34-.17-.51-.3-.51-.38a1.49,1.49,0,0,1,.12-.45,4.33,4.33,0,0,1-.41-.23c-.11-.06-.16-.2-.16-.42a.49.49,0,0,0,.32-.51.64.64,0,0,0-.32-.58q-.14.14-.36,0a.87.87,0,0,1-.29-.29c-.17-.3-.34-.39-.51-.26a4.81,4.81,0,0,0-.48.42l-.45.45a.93.93,0,0,1-.68.22c-.13.13-.23.1-.32-.09a1.53,1.53,0,0,0-.26-.42c-.38-.43-.63-.62-.74-.58a.94.94,0,0,1-.48,0,.56.56,0,0,0,.36.32.38.38,0,0,0,.41-.13,5.88,5.88,0,0,1,.36.71,1.33,1.33,0,0,1,0,.84,1.78,1.78,0,0,0-.9.9,2.76,2.76,0,0,0,1.06,0,1.2,1.2,0,0,0,.61-.29c.17.39.28.56.32.51s.11,0,.19.07a.31.31,0,0,1,.23-.29.58.58,0,0,1,.48,0,.89.89,0,0,1,.52-.61,2.09,2.09,0,0,0,.64-.42,3.2,3.2,0,0,1-1.06,1.38,11.34,11.34,0,0,1-1.38.87,2.21,2.21,0,0,0,.48,1,2.27,2.27,0,0,0,.8.48.64.64,0,0,1,.13-.58c.13-.13.11-.21-.06-.25.34,0,.49.21.45.64a.89.89,0,0,0,.22.8,3.55,3.55,0,0,0,.64.52,3,3,0,0,0,.68.32,1,1,0,0,0,.71-.1l.77-.06.9.25a1.65,1.65,0,0,0,1,.71A7.27,7.27,0,0,0,143.09,53.75Zm-7.84-15.49a.63.63,0,0,1-.61.07.62.62,0,0,0-.48-.07c.3-.21.48-.35.55-.41a.46.46,0,0,1,.35-.1Zm-.19-7.07a1.46,1.46,0,0,0-.64.33c0-.18.14-.25.29-.23A.38.38,0,0,0,135.06,31.19Zm.58-1.09a.58.58,0,0,0-.32.13l-.36.23a.62.62,0,0,1-.32.09c-.1,0-.16-.08-.16-.26A7.39,7.39,0,0,0,135.64,30.1ZM135.45,33a.3.3,0,0,1-.23.16l-.29.07a.31.31,0,0,0-.19.1s0,.12.06.25c0-.34.11-.53.2-.58A.81.81,0,0,1,135.45,33Zm4.17-9.45a.78.78,0,0,0-.67,0,.38.38,0,0,1-.48,0,3.75,3.75,0,0,1-.68.65,2.35,2.35,0,0,1-.93.38,8.14,8.14,0,0,1-1,1,.82.82,0,0,0-.35.9c-.6.3-.84.53-.71.7,0,.39,0,.49.2.29a2.6,2.6,0,0,1,.57-.48,7.22,7.22,0,0,0,.9-.51c.26-.17.39-.35.39-.52a13.14,13.14,0,0,0,1.38-1.15Q138.92,24.13,139.62,23.54Zm-1.92,21c-.22.13-.38.12-.49,0s-.26-.18-.48-.1a2.38,2.38,0,0,1-.51.51c-.18.48-.35.67-.52.58a2.26,2.26,0,0,0-.83.33.32.32,0,0,1,.25.35c0,.19.15.25.45.16.35.09.5.07.45,0s0-.14.26-.1a.72.72,0,0,1,.16-.55c.15-.23.48-.31,1-.22a2.09,2.09,0,0,1,.06-.58A.76.76,0,0,1,137.7,44.5Zm-1.61-6.3q-.26.19-.42,0a3.29,3.29,0,0,0-.29-.32q.39-.14.48,0A1.34,1.34,0,0,0,136.09,38.2Zm.13-8a.73.73,0,0,1-.77.39.49.49,0,0,1,.38-.23A.64.64,0,0,0,136.22,30.23ZM137,47.65a1.64,1.64,0,0,1-.39.26.55.55,0,0,0-.32.38c-.43.22-.64.27-.64.16a.41.41,0,0,0-.13-.29c.34-.17.53-.36.58-.58a1.26,1.26,0,0,1,.45,0Zm-.84-15.36c0,.25-.23.43-.58.51a.64.64,0,0,0,.17-.38C135.76,32.24,135.9,32.2,136.15,32.29Zm.84-.13-.32.13a.43.43,0,0,1-.39-.07c0-.17.08-.26.23-.26s.24-.08.29-.25Zm.77,15c-.51.26-.77.33-.77.2a.18.18,0,0,0-.19-.2,2.6,2.6,0,0,1,.57-.35,1.92,1.92,0,0,1,.39,0Zm.77,4-.32.29a.29.29,0,0,1-.39,0,2.42,2.42,0,0,1,.36-.26A.4.4,0,0,1,138.53,51.12Zm11.38-13.63a3.3,3.3,0,0,0-.58-.64,6,6,0,0,0,.58-2.57.94.94,0,0,1-.45-.61,1.86,1.86,0,0,1,0-.74c.06-.26.12-.51.16-.77a1.7,1.7,0,0,0,0-.64.87.87,0,0,1-.64,0,4.45,4.45,0,0,1-.52-.33,4.53,4.53,0,0,1,.71-1,1.07,1.07,0,0,0,.32-.68c-.56-.08-.8-.33-.74-.74a8.25,8.25,0,0,1,.29-1.19,3,3,0,0,0-.42-.45,5,5,0,0,1-.41-.38,2.36,2.36,0,0,0,.22-.45,2.37,2.37,0,0,1,.23-.45c-.13-.39-.27-.76-.42-1.13a5.79,5.79,0,0,0-.52-1A2.15,2.15,0,0,0,147,23a2.18,2.18,0,0,0-1.23-.19,2.35,2.35,0,0,0-1.35-.1,3,3,0,0,1-1,.16,3.53,3.53,0,0,0-.71.81,1.74,1.74,0,0,1-.9.67.4.4,0,0,1-.42,0c-.15-.06-.27,0-.35.23.34.08.5.17.48.25a.62.62,0,0,0,.1.39l-.45.45a2.7,2.7,0,0,0-.42.51.74.74,0,0,0-.13.49c0,.15.18.29.48.41-.3.48-.5.67-.61.58a.58.58,0,0,0-.35-.13,1.88,1.88,0,0,1,0,.55c0,.11-.14.14-.35.1a2.93,2.93,0,0,1-1.29,1.93c0,.34.12.51.23.51s.16.06.16.19a1.15,1.15,0,0,0-.39.84,3.33,3.33,0,0,0,0,.9,7.1,7.1,0,0,0-.32,1.93,4.19,4.19,0,0,1-.32,1.6,3.53,3.53,0,0,1,.26.68q.06.28.12.87c1.12-.09,2.26-.12,3.44-.1s2.33.08,3.44.16a4.77,4.77,0,0,0,1.19,0,3.61,3.61,0,0,1,1.13,0l1.28.09A2.09,2.09,0,0,0,149.91,37.49ZM138.72,49.38q-.32-.12-.45,0a.2.2,0,0,1-.25.07A3.77,3.77,0,0,1,138.72,49.38Zm11.19-26.09q-.39-.13-.9-.36a.8.8,0,0,0-.84,0,.86.86,0,0,1,.48.67.75.75,0,0,0,.62.61,1.6,1.6,0,0,1,.32-.45A1.78,1.78,0,0,0,149.91,23.29ZM153.25,27a.56.56,0,0,0-.13-1,1.59,1.59,0,0,1-.83.55.71.71,0,0,0-.52.29,3.12,3.12,0,0,1,.71-.87.51.51,0,0,0,.26-.35,1.07,1.07,0,0,0-.45,0,.68.68,0,0,0-.26.12.64.64,0,0,1-.29.13.57.57,0,0,1-.42-.16,2.44,2.44,0,0,1-.9.93,1.45,1.45,0,0,0-.64.61c.3.56.42.86.35.9a.54.54,0,0,0-.16.2.84.84,0,0,1,.2.29.41.41,0,0,0,.32.22A3,3,0,0,1,151,28a1.3,1.3,0,0,1,.8-.39,1.15,1.15,0,0,1,.55-.54A1.28,1.28,0,0,1,153.25,27ZM154.6,29a1.13,1.13,0,0,0-.77,0,2.61,2.61,0,0,0-.71.35,5.89,5.89,0,0,1-.7.42,2.65,2.65,0,0,1-.78.26l-.25.25a1.81,1.81,0,0,0-.26.33.5.5,0,0,1-.32.22,1.08,1.08,0,0,0-.39.16q-.19.84.45,1a1.65,1.65,0,0,1,.71-.89l1-.65a1.13,1.13,0,0,1,.87-.8A2.32,2.32,0,0,0,154.6,29Zm-1,3.53a7,7,0,0,0-1.51.81,12.73,12.73,0,0,1-1.39.86,1.27,1.27,0,0,0-.09.58.48.48,0,0,0,.29.39,1.14,1.14,0,0,1,.64-.71,1.14,1.14,0,0,0,.64-.77c.43-.21.77-.37,1-.48A.66.66,0,0,0,153.64,32.54Zm-2.13-5.91a.55.55,0,0,1-.38.32c-.17.05-.26.24-.26.58a.45.45,0,0,1-.09-.64A.58.58,0,0,1,151.51,26.63Zm.26-1.29c-.17-.08-.18-.2,0-.35s.14-.27,0-.35a.81.81,0,0,1-.61.51c-.32.09-.44.26-.36.52a.6.6,0,0,1,.55-.33Zm3.73,5.08c0-.47-.13-.74-.39-.8a1.58,1.58,0,0,0-.83,0c-.26.3-.41.41-.45.32s-.15-.1-.32-.06c-.13.73-.29,1.1-.48,1.12a.52.52,0,0,0-.42.42,1.36,1.36,0,0,0-1,.64,1.8,1.8,0,0,1-.87.78c.09.17.29.22.61.16a1,1,0,0,0,.68-.42,5.15,5.15,0,0,1,.58-.32,1.24,1.24,0,0,1,.77-.13.58.58,0,0,1,.51-.58,1.1,1.1,0,0,0,.71-.45A1.88,1.88,0,0,1,155.5,30.42ZM156,35.5a4.16,4.16,0,0,0-1.8,1,1.26,1.26,0,0,0-1,.36,9.77,9.77,0,0,1-.9.74h1.83a6.45,6.45,0,0,0,1.58-.2c-.09-.68,0-1.08.13-1.18S156,35.84,156,35.5Zm-1.16-7.2c-.08-.3-.17-.46-.25-.48a.4.4,0,0,0-.29.06l-.42.26a.59.59,0,0,1-.58,0,1.24,1.24,0,0,1-.19.36c-.09.1-.17.2-.26.29a3.42,3.42,0,0,1,.45-.1.61.61,0,0,1,.45.16,6.05,6.05,0,0,0,.58-.42A.82.82,0,0,1,154.79,28.3ZM156,32.22l-.7.23a2.44,2.44,0,0,0-.64.29,2.3,2.3,0,0,0-.94,1,1.1,1.1,0,0,1-.86.64c.59-.08.93-.18,1-.29s.23-.13.48-.09a2.49,2.49,0,0,1,.74-.64c.2-.09.38-.17.55-.23a1.11,1.11,0,0,0,.42-.26C156.15,32.73,156.14,32.52,156,32.22Zm.71,10.16a5.9,5.9,0,0,0-.48,1.12.82.82,0,0,0,.16.87,3.23,3.23,0,0,0,.19-.9C156.63,43.08,156.68,42.72,156.72,42.38Z" transform="translate(-0.07 -0.15)"/><path class="cls-1" d="M114.23,9.18q-.93,0-4,5.52a19.63,19.63,0,0,1-1.2,2,1.54,1.54,0,0,1-.63.29,2.68,2.68,0,0,1-.75.13c-.45,0-.68-.87-.68-2.61a38.42,38.42,0,0,1,.64-5.33A15.62,15.62,0,0,0,107.88,7q0-.66.6-.66c.74,0,1.11.53,1.11,1.6a23.55,23.55,0,0,1-.37,2.95,28,28,0,0,0-.44,3,14.69,14.69,0,0,0,1.82-2.63,18.77,18.77,0,0,1,2.51-3.53A2.42,2.42,0,0,1,114.77,7c.44,0,.78.29,1,.87a14.25,14.25,0,0,1,.47,4.16,4.39,4.39,0,0,0,.15,1.22c.08.27.15.4.19.4.31,0,1-1.07,2-3.2a11.69,11.69,0,0,1,1.63-2.58A2.37,2.37,0,0,1,122.06,7a1.23,1.23,0,0,1,1.18.84,8.06,8.06,0,0,1,.53,2.47,24.83,24.83,0,0,0,.47,3.05,2.37,2.37,0,0,0,1.16,1.77q.57.27.57.63a1,1,0,0,1-.48.72,1.49,1.49,0,0,1-.88.37,1.74,1.74,0,0,1-1.44-1,11.31,11.31,0,0,1-1-4.24A15.69,15.69,0,0,0,122,9.74c-.08-.36-.22-.55-.41-.55s-.61.27-1,.81a29,29,0,0,0-1.86,3.25,19.05,19.05,0,0,1-1.52,2.55,1.37,1.37,0,0,1-1,.63,1.07,1.07,0,0,1-.77-.34,1.62,1.62,0,0,1-.43-.83c-.06-.33-.12-1.12-.19-2.39C114.68,10.76,114.5,9.53,114.23,9.18Z" transform="translate(-0.07 -0.15)"/><path class="cls-1" d="M130.67,17.6a2.82,2.82,0,0,1-2.26-1,3.83,3.83,0,0,1-.89-2.57,8.85,8.85,0,0,1,1.74-5.09,5,5,0,0,1,4.16-2.51A3.17,3.17,0,0,1,136,7.62a4.5,4.5,0,0,1,1,2.94A6.94,6.94,0,0,1,135,15.38,5.88,5.88,0,0,1,130.67,17.6Zm-1.39-3.87a2.89,2.89,0,0,0,.43,1.65,1.28,1.28,0,0,0,1.12.64,4.17,4.17,0,0,0,3-1.64,5.25,5.25,0,0,0,1.5-3.63,3.19,3.19,0,0,0-.58-2A1.83,1.83,0,0,0,133.21,8a3.28,3.28,0,0,0-2.77,2A7.5,7.5,0,0,0,129.28,13.73Z" transform="translate(-0.07 -0.15)"/><path class="cls-1" d="M141.27,17.22a12.54,12.54,0,0,0-.85-3,22.09,22.09,0,0,1-1.66-6.29c0-.94.32-1.41.94-1.41s.93.42.93,1.26a15.86,15.86,0,0,0,.06,1.59,14.74,14.74,0,0,0,.48,2,26.7,26.7,0,0,0,.9,2.74l.36,1c.14-.21.32-.51.54-.88q1.75-3,2.81-4.57a20.2,20.2,0,0,1,1.7-2.33,3.87,3.87,0,0,1,1-.87,1.45,1.45,0,0,1,.63-.15.73.73,0,0,1,.62.28,1,1,0,0,1,.23.64c0,.31-.28.66-.82,1a11.66,11.66,0,0,0-2.28,2.62,48.92,48.92,0,0,0-3.24,5.33c-.6,1.1-1.05,1.64-1.37,1.64S141.62,17.66,141.27,17.22Z" transform="translate(-0.07 -0.15)"/><path class="cls-1" d="M152.45,14.88a8,8,0,0,0,.21,1.71,1.24,1.24,0,0,1,0,.3c0,.12-.11.28-.33.47a1,1,0,0,1-.7.28c-.65,0-1-.59-1-1.78a34.48,34.48,0,0,1,.76-5.82,14.69,14.69,0,0,0,.26-1.72A2.32,2.32,0,0,1,152,7.25a.71.71,0,0,1,.65-.45,1.21,1.21,0,0,1,.81.25.7.7,0,0,1,.29.54,2.74,2.74,0,0,1-.14.79,37.24,37.24,0,0,0-.93,3.79A17.61,17.61,0,0,0,152.45,14.88ZM153.76,3.7c-.14,0-.25-.15-.32-.45a2.33,2.33,0,0,0-.11-.31,3.05,3.05,0,0,1-.27-1.14,1.14,1.14,0,0,1,.48-.81,1.54,1.54,0,0,1,1.05-.42,1.25,1.25,0,0,1,.65.23c.24.15.36.29.36.43a4.62,4.62,0,0,1-.24,1.13,1.68,1.68,0,0,1-.78,1.06A2,2,0,0,1,153.76,3.7Z" transform="translate(-0.07 -0.15)"/><path class="cls-1" d="M160,.15c.48,0,.72.31.72.92A20.49,20.49,0,0,1,159.82,5,28.93,28.93,0,0,0,159,9.26a30.94,30.94,0,0,0-.3,3.68,25.68,25.68,0,0,0,.21,3.28c0,.21,0,.36,0,.45a1.23,1.23,0,0,1-.34.86,1,1,0,0,1-.72.36c-.36,0-.6-.22-.74-.66a7.8,7.8,0,0,1-.2-2.13,53,53,0,0,1,.8-8.31A28.42,28.42,0,0,1,159,1C159.32.43,159.64.15,160,.15Z" transform="translate(-0.07 -0.15)"/></svg>