<svg id="Layer_1" data-name="Layer 1" xmlns="http://www.w3.org/2000/svg" viewBox="0 0 15.91 12.83"><defs><style>.cls-1{fill:#fff;}</style></defs><title>love</title><g id="Made_with" data-name="Made with"><path class="cls-1" d="M12.85,5.49a3.89,3.89,0,0,1,2.1-.6A4.19,4.19,0,0,1,17,5.41a3.9,3.9,0,0,1,1.52,1.47,4.22,4.22,0,0,1,.59,2.26,5.52,5.52,0,0,1-.28,1.59A4.84,4.84,0,0,1,18.14,12a6.88,6.88,0,0,1-1,1.09,15,15,0,0,1-1.23.94l-1.32.85c-.57.36-1,.65-1.3.85-.46.33-.85.63-1.18.92a6.45,6.45,0,0,0-.94,1.06,5.64,5.64,0,0,0-.94-1.06c-.32-.29-.72-.59-1.17-.92-.3-.2-.73-.49-1.31-.86L6.41,14c-.47-.33-.88-.65-1.22-.94a6.88,6.88,0,0,1-1-1.09,4.88,4.88,0,0,1-.7-1.28A5.2,5.2,0,0,1,3.2,9.14a4.22,4.22,0,0,1,.59-2.26A3.9,3.9,0,0,1,5.31,5.41a4.18,4.18,0,0,1,2-.52,3.84,3.84,0,0,1,2.1.6,4.78,4.78,0,0,1,1.7,1.9A4.93,4.93,0,0,1,12.85,5.49Z" transform="translate(-3.2 -4.89)"/></g></svg>