<svg id="Layer_1" data-name="Layer 1" xmlns="http://www.w3.org/2000/svg" xmlns:xlink="http://www.w3.org/1999/xlink" viewBox="0 0 1511.74 423.43"><defs><style>.cls-1{fill:none;}.cls-2,.cls-3{fill:#fff;}.cls-2{opacity:0.8;}.cls-4{clip-path:url(#clip-path);}.cls-5{fill:#403f3f;}.cls-6{fill:#ff4246;}.cls-7{fill:#ff5e62;}.cls-8{opacity:0.17;}</style><clipPath id="clip-path" transform="translate(60.22 0.55)"><rect class="cls-1" width="1371.24" height="150"/></clipPath></defs><title>navbar</title><g id="Firebase"><path class="cls-2" d="M517.57,419.51q1.14-7.39,2.29-14.8l5.14,7.07C525,411.84,517.73,419.51,517.57,419.51Z" transform="translate(60.22 0.55)"/><path class="cls-3" d="M530.65,419.29l-.41.22-6.53,3.37-6.16-3.55-.06,0,0,0,11.25-11.07,1.89,11.07Z" transform="translate(60.22 0.55)"/><path class="cls-2" d="M517.69,419.27l6.14-12,2.1,3.75S517.75,419.27,517.69,419.27Z" transform="translate(60.22 0.55)"/><path class="cls-3" d="M522.35,414.51" transform="translate(60.22 0.55)"/><path class="cls-3" d="M525.05,411.85" transform="translate(60.22 0.55)"/></g><g class="cls-4"><g id="Shadow"><path class="cls-5" d="M710.29,148H682.84c-9.07,0-16.4-6.73-16.39-15l-.07-38.74h60.3l.16,38.74C726.78,141.27,719.36,148,710.29,148Z" transform="translate(60.22 0.55)"/><path class="cls-5" d="M589.7,148H562.26c-9.07,0-16.51-6.73-16.58-15l.11-38.74h60.3l0,38.74C606.09,141.27,598.77,148,589.7,148Z" transform="translate(60.22 0.55)"/><g id="_Group_" data-name="&lt;Group&gt;"><path class="cls-5" d="M666.42,148H606.13l0-53.77q9.38-.17,19-.23,21.2-.14,41.3.23Q666.47,121.11,666.42,148Z" transform="translate(60.22 0.55)"/></g><path class="cls-5" d="M469.11,148H441.67c-9.07,0-16.61-6.73-16.77-15l.3-38.74h60.3L485.29,133C485.4,141.27,478.19,148,469.11,148Z" transform="translate(60.22 0.55)"/><path class="cls-5" d="M545.83,148H485.54l0-53.77q9.38-.17,19-.23,21.19-.14,41.3.23Q545.57,121.11,545.83,148Z" transform="translate(60.22 0.55)"/><path class="cls-5" d="M348.53,148H321.08c-9.07,0-16.71-6.73-17-15l.49-38.74H364.9L364.51,133C364.71,141.27,357.6,148,348.53,148Z" transform="translate(60.22 0.55)"/><path class="cls-5" d="M425.25,148H365l-.05-53.77q9.39-.17,19-.23,21.21-.14,41.3.23Q424.66,121.11,425.25,148Z" transform="translate(60.22 0.55)"/><path class="cls-5" d="M227.94,148H200.5c-9.08,0-16.82-6.73-17.16-15L184,94.23h60.29L243.73,133C244,141.27,237,148,227.94,148Z" transform="translate(60.22 0.55)"/><path class="cls-5" d="M304.66,148h-60.3l-.05-53.77q9.39-.17,19-.23,21.21-.14,41.3.23Q303.76,121.11,304.66,148Z" transform="translate(60.22 0.55)"/><path class="cls-5" d="M1192.64,148h-27.45c-9.07,0-16-6.73-15.62-15l-.82-38.74h60.3L1210,133C1209.55,141.27,1201.71,148,1192.64,148Z" transform="translate(60.22 0.55)"/><path class="cls-5" d="M1072.05,148h-27.44c-9.08,0-16.1-6.73-15.82-15l-.63-38.74h60.3l.72,38.74C1088.86,141.27,1081.12,148,1072.05,148Z" transform="translate(60.22 0.55)"/><path class="cls-5" d="M1148.77,148h-60.29l0-53.77q9.36-.17,19-.23,21.18-.14,41.32.23Q1150.09,121.11,1148.77,148Z" transform="translate(60.22 0.55)"/><path class="cls-5" d="M951.46,148H924c-9.07,0-16.2-6.73-16-15l-.44-38.74h60.29L968.4,133C968.17,141.27,960.53,148,951.46,148Z" transform="translate(60.22 0.55)"/><path class="cls-5" d="M1028.18,148H967.89l0-53.77q9.38-.17,19-.23,21.2-.14,41.32.23Q1029.18,121.11,1028.18,148Z" transform="translate(60.22 0.55)"/><path class="cls-5" d="M830.88,148H803.43c-9.07,0-16.3-6.73-16.2-15L787,94.23h60.29l.35,38.74C847.48,141.27,840,148,830.88,148Z" transform="translate(60.22 0.55)"/><path class="cls-5" d="M907.59,148H847.3l0-53.77q9.38-.17,19-.23,21.19-.14,41.32.23Q908.27,121.11,907.59,148Z" transform="translate(60.22 0.55)"/><path class="cls-5" d="M1433.81,148h-27.44c-9.07,0-15.79-6.73-15.25-15l-1.18-38.74h60.29l1.28,38.74C1450.93,141.27,1442.88,148,1433.81,148Z" transform="translate(60.22 0.55)"/><path class="cls-5" d="M1313.23,148h-27.45c-9.07,0-15.89-6.73-15.44-15l-1-38.74h60.3l1.09,38.74C1330.24,141.27,1322.3,148,1313.23,148Z" transform="translate(60.22 0.55)"/><path class="cls-5" d="M1389.94,148h-60.29V94.23q9.36-.17,19-.23,21.18-.14,41.33.23A371.16,371.16,0,0,1,1389.94,148Z" transform="translate(60.22 0.55)"/><path class="cls-5" d="M1269.36,148h-60.3V94.23q9.36-.17,19-.23,21.18-.14,41.32.23A440.47,440.47,0,0,1,1269.36,148Z" transform="translate(60.22 0.55)"/><path class="cls-5" d="M787,148h-60.3l0-53.77q9.38-.17,19-.23,21.18-.14,41.31.23Q787.37,121.11,787,148Z" transform="translate(60.22 0.55)"/><path class="cls-5" d="M107.35,148H79.91c-9.07,0-16.93-6.73-17.35-15l.86-38.74h60.3L123,133C123.33,141.27,116.42,148,107.35,148Z" transform="translate(60.22 0.55)"/><path class="cls-5" d="M184.07,148H123.78l-.06-53.77q9.39-.17,19-.23,21.2-.14,41.29.23Q182.85,121.11,184.07,148Z" transform="translate(60.22 0.55)"/><path class="cls-5" d="M-13.23,148H-40.68c-9.07,0-17-6.73-17.54-15l1-38.74H3.13L2.17,133C2.64,141.27-4.16,148-13.23,148Z" transform="translate(60.22 0.55)"/><path class="cls-5" d="M63.48,148H3.19L3.13,94.23q9.39-.17,19-.23,21.21-.14,41.28.23A487.11,487.11,0,0,0,63.48,148Z" transform="translate(60.22 0.55)"/></g><g id="Bottom"><path class="cls-6" d="M708.28,142H680.84c-9.07,0-16.41-6.73-16.39-15l-.07-38.74h60.29l.16,38.74C724.78,135.27,717.35,142,708.28,142Z" transform="translate(60.22 0.55)"/><path class="cls-6" d="M587.69,142H560.25c-9.07,0-16.51-6.73-16.58-15l.11-38.74h60.3l0,38.74C604.09,135.27,596.77,142,587.69,142Z" transform="translate(60.22 0.55)"/><g id="_Group_2" data-name="&lt;Group&gt;"><path class="cls-7" d="M664.41,142H604.12l0-53.77q9.38-.17,19-.23,21.2-.14,41.31.23Q664.47,115.11,664.41,142Z" transform="translate(60.22 0.55)"/></g><path class="cls-6" d="M467.11,142H439.66c-9.07,0-16.61-6.73-16.77-15l.3-38.74h60.3L483.28,127C483.39,135.27,476.18,142,467.11,142Z" transform="translate(60.22 0.55)"/><path class="cls-7" d="M543.82,142H483.53l0-53.77q9.38-.17,19-.23,21.19-.14,41.3.23Q543.57,115.11,543.82,142Z" transform="translate(60.22 0.55)"/><path class="cls-6" d="M346.52,142H319.07c-9.07,0-16.71-6.73-17-15l.49-38.74h60.3L362.5,127C362.7,135.27,355.59,142,346.52,142Z" transform="translate(60.22 0.55)"/><path class="cls-7" d="M423.24,142h-60.3l0-53.77q9.38-.17,19-.23,21.19-.14,41.29.23Q422.67,115.11,423.24,142Z" transform="translate(60.22 0.55)"/><path class="cls-6" d="M225.93,142H198.49c-9.07,0-16.82-6.73-17.16-15L182,88.23H242.3L241.72,127C242,135.27,235,142,225.93,142Z" transform="translate(60.22 0.55)"/><path class="cls-7" d="M302.65,142H242.36l-.06-53.77q9.39-.17,19-.23,21.19-.14,41.29.23Q301.76,115.11,302.65,142Z" transform="translate(60.22 0.55)"/><path class="cls-6" d="M1190.63,142h-27.44c-9.08,0-16-6.73-15.63-15l-.82-38.74H1207L1208,127C1207.54,135.27,1199.7,142,1190.63,142Z" transform="translate(60.22 0.55)"/><path class="cls-6" d="M1070,142H1042.6c-9.07,0-16.1-6.73-15.82-15l-.63-38.74h60.3l.72,38.74C1086.85,135.27,1079.11,142,1070,142Z" transform="translate(60.22 0.55)"/><path class="cls-7" d="M1146.76,142h-60.29l0-53.77q9.36-.17,19-.23,21.19-.14,41.32.23Q1148.09,115.11,1146.76,142Z" transform="translate(60.22 0.55)"/><path class="cls-6" d="M949.46,142H922c-9.07,0-16.2-6.73-16-15l-.44-38.74h60.3l.53,38.74C966.16,135.27,958.53,142,949.46,142Z" transform="translate(60.22 0.55)"/><path class="cls-7" d="M1026.17,142H965.88l0-53.77q9.36-.17,19-.23,21.2-.14,41.32.23Q1027.19,115.11,1026.17,142Z" transform="translate(60.22 0.55)"/><path class="cls-6" d="M828.87,142H801.42c-9.07,0-16.3-6.73-16.2-15L785,88.23h60.29l.35,38.74C845.47,135.27,837.94,142,828.87,142Z" transform="translate(60.22 0.55)"/><path class="cls-7" d="M905.59,142h-60.3l0-53.77q9.38-.17,19-.23,21.18-.14,41.31.23Q906.28,115.11,905.59,142Z" transform="translate(60.22 0.55)"/><path class="cls-6" d="M1431.8,142h-27.44c-9.07,0-15.78-6.73-15.24-15l-1.19-38.74h60.29L1449.5,127C1448.92,135.27,1440.88,142,1431.8,142Z" transform="translate(60.22 0.55)"/><path class="cls-6" d="M1311.22,142h-27.45c-9.07,0-15.88-6.73-15.43-15l-1-38.74h60.29l1.1,38.74C1328.23,135.27,1320.29,142,1311.22,142Z" transform="translate(60.22 0.55)"/><path class="cls-7" d="M1387.94,142h-60.3V88.23q9.36-.17,19-.23,21.18-.14,41.33.23A371.16,371.16,0,0,1,1387.94,142Z" transform="translate(60.22 0.55)"/><path class="cls-7" d="M1267.35,142h-60.3V88.23q9.36-.17,19-.23,21.18-.14,41.33.23A442.49,442.49,0,0,1,1267.35,142Z" transform="translate(60.22 0.55)"/><path class="cls-7" d="M785,142H724.71l0-53.77q9.38-.17,19-.23,21.2-.14,41.31.23Q785.38,115.11,785,142Z" transform="translate(60.22 0.55)"/><path class="cls-6" d="M105.35,142H77.9c-9.07,0-16.92-6.73-17.35-15l.87-38.74h60.29L120.94,127C121.32,135.27,114.42,142,105.35,142Z" transform="translate(60.22 0.55)"/><path class="cls-7" d="M182.06,142H121.77l-.06-53.77q9.39-.17,19-.23,21.21-.14,41.29.23Q180.86,115.11,182.06,142Z" transform="translate(60.22 0.55)"/><path class="cls-6" d="M-15.24,142H-42.69c-9.07,0-17-6.73-17.53-15l1-38.74H1.12L.17,127C.63,135.27-6.17,142-15.24,142Z" transform="translate(60.22 0.55)"/><path class="cls-7" d="M61.48,142H1.18L1.12,88.23q9.39-.17,19-.23,21.21-.14,41.29.23A482.24,482.24,0,0,0,61.48,142Z" transform="translate(60.22 0.55)"/></g><g id="Bottom-2" data-name="Bottom" class="cls-8"><path d="M708.28,142H680.84c-9.07,0-16.41-6.73-16.39-15l-.07-38.74h60.29l.16,38.74C724.78,135.27,717.35,142,708.28,142Z" transform="translate(60.22 0.55)"/><path d="M587.69,142H560.25c-9.07,0-16.51-6.73-16.58-15l.11-38.74h60.3l0,38.74C604.09,135.27,596.77,142,587.69,142Z" transform="translate(60.22 0.55)"/><g id="_Group_3" data-name="&lt;Group&gt;"><path d="M664.41,142H604.12l0-53.77q9.38-.17,19-.23,21.2-.14,41.31.23Q664.47,115.11,664.41,142Z" transform="translate(60.22 0.55)"/></g><path d="M467.11,142H439.66c-9.07,0-16.61-6.73-16.77-15l.3-38.74h60.3L483.28,127C483.39,135.27,476.18,142,467.11,142Z" transform="translate(60.22 0.55)"/><path d="M543.82,142H483.53l0-53.77q9.38-.17,19-.23,21.19-.14,41.3.23Q543.57,115.11,543.82,142Z" transform="translate(60.22 0.55)"/><path d="M346.52,142H319.07c-9.07,0-16.71-6.73-17-15l.49-38.74h60.3L362.5,127C362.7,135.27,355.59,142,346.52,142Z" transform="translate(60.22 0.55)"/><path d="M423.24,142h-60.3l0-53.77q9.38-.17,19-.23,21.19-.14,41.29.23Q422.67,115.11,423.24,142Z" transform="translate(60.22 0.55)"/><path d="M225.93,142H198.49c-9.07,0-16.82-6.73-17.16-15L182,88.23H242.3L241.72,127C242,135.27,235,142,225.93,142Z" transform="translate(60.22 0.55)"/><path d="M302.65,142H242.36l-.06-53.77q9.39-.17,19-.23,21.19-.14,41.29.23Q301.76,115.11,302.65,142Z" transform="translate(60.22 0.55)"/><path d="M1190.63,142h-27.44c-9.08,0-16-6.73-15.63-15l-.82-38.74H1207L1208,127C1207.54,135.27,1199.7,142,1190.63,142Z" transform="translate(60.22 0.55)"/><path d="M1070,142H1042.6c-9.07,0-16.1-6.73-15.82-15l-.63-38.74h60.3l.72,38.74C1086.85,135.27,1079.11,142,1070,142Z" transform="translate(60.22 0.55)"/><path d="M1146.76,142h-60.29l0-53.77q9.36-.17,19-.23,21.19-.14,41.32.23Q1148.09,115.11,1146.76,142Z" transform="translate(60.22 0.55)"/><path d="M949.46,142H922c-9.07,0-16.2-6.73-16-15l-.44-38.74h60.3l.53,38.74C966.16,135.27,958.53,142,949.46,142Z" transform="translate(60.22 0.55)"/><path d="M1026.17,142H965.88l0-53.77q9.36-.17,19-.23,21.2-.14,41.32.23Q1027.19,115.11,1026.17,142Z" transform="translate(60.22 0.55)"/><path d="M828.87,142H801.42c-9.07,0-16.3-6.73-16.2-15L785,88.23h60.29l.35,38.74C845.47,135.27,837.94,142,828.87,142Z" transform="translate(60.22 0.55)"/><path d="M905.59,142h-60.3l0-53.77q9.38-.17,19-.23,21.18-.14,41.31.23Q906.28,115.11,905.59,142Z" transform="translate(60.22 0.55)"/><path d="M1431.8,142h-27.44c-9.07,0-15.78-6.73-15.24-15l-1.19-38.74h60.29L1449.5,127C1448.92,135.27,1440.88,142,1431.8,142Z" transform="translate(60.22 0.55)"/><path d="M1311.22,142h-27.45c-9.07,0-15.88-6.73-15.43-15l-1-38.74h60.29l1.1,38.74C1328.23,135.27,1320.29,142,1311.22,142Z" transform="translate(60.22 0.55)"/><path d="M1387.94,142h-60.3V88.23q9.36-.17,19-.23,21.18-.14,41.33.23A371.16,371.16,0,0,1,1387.94,142Z" transform="translate(60.22 0.55)"/><path d="M1267.35,142h-60.3V88.23q9.36-.17,19-.23,21.18-.14,41.33.23A442.49,442.49,0,0,1,1267.35,142Z" transform="translate(60.22 0.55)"/><path d="M785,142H724.71l0-53.77q9.38-.17,19-.23,21.2-.14,41.31.23Q785.38,115.11,785,142Z" transform="translate(60.22 0.55)"/><path d="M105.35,142H77.9c-9.07,0-16.92-6.73-17.35-15l.87-38.74h60.29L120.94,127C121.32,135.27,114.42,142,105.35,142Z" transform="translate(60.22 0.55)"/><path d="M182.06,142H121.77l-.06-53.77q9.39-.17,19-.23,21.21-.14,41.29.23Q180.86,115.11,182.06,142Z" transform="translate(60.22 0.55)"/><path d="M-15.24,142H-42.69c-9.07,0-17-6.73-17.53-15l1-38.74H1.12L.17,127C.63,135.27-6.17,142-15.24,142Z" transform="translate(60.22 0.55)"/><path d="M61.48,142H1.18L1.12,88.23q9.39-.17,19-.23,21.21-.14,41.29.23A482.24,482.24,0,0,0,61.48,142Z" transform="translate(60.22 0.55)"/></g><g id="Up"><polygon class="cls-6" points="784.93 90.58 724.64 90.58 722.3 1 777.52 1 784.93 90.58"/><polygon class="cls-6" points="664.34 90.58 604.05 90.58 611.84 1 667.07 1 664.34 90.58"/><path class="cls-7" d="M664.41,90H604.12L606.85.45q8.6-.29,17.4-.39,19.39-.22,37.82.39Z" transform="translate(60.22 0.55)"/><polygon class="cls-6" points="543.75 90.58 483.46 90.58 501.39 1 556.62 1 543.75 90.58"/><path class="cls-7" d="M543.82,90H483.53L496.39.45Q505,.16,513.84.06q19.42-.22,37.78.39Z" transform="translate(60.22 0.55)"/><polygon class="cls-6" points="423.17 90.58 362.87 90.58 390.93 1 446.16 1 423.17 90.58"/><path class="cls-7" d="M423.24,90h-60.3l23-89.57Q394.6.16,403.42.06q19.47-.22,37.74.39Z" transform="translate(60.22 0.55)"/><polygon class="cls-6" points="302.58 90.58 242.29 90.58 280.48 1 335.71 1 302.58 90.58"/><path class="cls-7" d="M302.65,90H242.36L275.48.45Q284.18.16,293,.06q19.49-.22,37.7.39Z" transform="translate(60.22 0.55)"/><polygon class="cls-6" points="1267.28 90.58 1206.98 90.58 1164.12 1 1219.34 1 1267.28 90.58"/><polygon class="cls-6" points="1146.69 90.58 1086.4 90.58 1053.66 1 1108.89 1 1146.69 90.58"/><path class="cls-7" d="M1146.76,90h-60.29L1048.66.45q8.47-.29,17.23-.39,19.29-.22,38,.39Z" transform="translate(60.22 0.55)"/><polygon class="cls-6" points="1026.1 90.58 965.81 90.58 943.21 1 998.43 1 1026.1 90.58"/><path class="cls-7" d="M1026.17,90H965.88L938.21.45q8.5-.29,17.27-.39,19.32-.22,38,.39Z" transform="translate(60.22 0.55)"/><polygon class="cls-6" points="905.52 90.58 845.22 90.58 832.75 1 887.98 1 905.52 90.58"/><path class="cls-7" d="M905.59,90h-60.3L827.76.45q8.52-.29,17.31-.39Q864.42-.16,883,.45Z" transform="translate(60.22 0.55)"/><polygon class="cls-6" points="1508.45 90.58 1448.16 90.58 1385.02 1 1440.25 1 1508.45 90.58"/><polygon class="cls-6" points="1387.87 90.58 1327.57 90.58 1274.57 1 1329.8 1 1387.87 90.58"/><path class="cls-7" d="M1387.94,90h-60.3L1269.57.45q8.42-.29,17.14-.39Q1306-.16,1324.8.45Z" transform="translate(60.22 0.55)"/><path class="cls-7" d="M1267.35,90h-60.3L1159.12.45q8.43-.29,17.18-.39,19.28-.22,38,.39Z" transform="translate(60.22 0.55)"/><path class="cls-7" d="M785,90H724.71L717.3.45q8.57-.29,17.36-.39Q754-.16,772.53.45Z" transform="translate(60.22 0.55)"/><polygon class="cls-6" points="181.99 90.58 121.7 90.58 170.03 1 225.25 1 181.99 90.58"/><path class="cls-7" d="M182.06,90H121.77L165,.45Q173.75.16,182.6.06q19.52-.22,37.66.39Z" transform="translate(60.22 0.55)"/><polygon class="cls-6" points="61.42 90.55 1.13 90.55 60.22 0 115.39 0 61.42 90.55"/><path class="cls-7" d="M61.48,90H1.18L54.57.45Q63.33.16,72.19.06,91.74-.16,109.8.45Z" transform="translate(60.22 0.55)"/></g></g></svg>