<svg id="Layer_1" data-name="Layer 1" xmlns="http://www.w3.org/2000/svg" viewBox="0 0 19.25 17.16"><defs><style>.cls-1{fill:#fff;}</style></defs><title>react</title><path class="cls-1" d="M4.39,16.68c.1-.66.15-1.26.27-1.84.09-.39,0-.56-.4-.68a6.61,6.61,0,0,1-2.88-1.7,1.86,1.86,0,0,1,0-2.81A6.46,6.46,0,0,1,4.25,8c.4-.13.51-.3.42-.71a6.85,6.85,0,0,1-.14-2.78,3.66,3.66,0,0,1,.17-.65A1.83,1.83,0,0,1,7.08,2.59,6.7,6.7,0,0,1,10,4.25c.31.28.5.25.82,0a11.6,11.6,0,0,1,2.31-1.48c1.8-.76,3,.06,3.13,2a16.52,16.52,0,0,1-.15,2.53c0,.37,0,.55.38.67A7.35,7.35,0,0,1,19,9.33c1.29,1.07,1.34,2.44,0,3.44a13.93,13.93,0,0,1-2.5,1.34c-.34.16-.47.28-.39.68a6.69,6.69,0,0,1,.06,3.05c-.37,1.54-1.42,2.19-2.9,1.62A10.78,10.78,0,0,1,11,18.11c-.73-.52-.56-.46-1.12,0a5.91,5.91,0,0,1-3,1.52A1.86,1.86,0,0,1,4.7,18.27,14.33,14.33,0,0,1,4.39,16.68Zm6-2.56h0a11.09,11.09,0,0,0,1.29,0,1,1,0,0,0,.65-.36c.49-.77.94-1.58,1.37-2.39a.79.79,0,0,0,0-.62c-.42-.8-.87-1.59-1.35-2.36a.78.78,0,0,0-.53-.32c-1,0-1.93,0-2.89,0a.68.68,0,0,0-.46.28C8,9.11,7.5,9.89,7.08,10.69a.88.88,0,0,0,0,.71c.43.81.89,1.61,1.38,2.38a.92.92,0,0,0,.58.33C9.47,14.15,9.92,14.12,10.37,14.12Zm-4.49-3a1.54,1.54,0,0,0,0-.19c-.26-.68-.51-1.37-.79-2a.44.44,0,0,0-.39-.13A6.51,6.51,0,0,0,2.23,10a1.19,1.19,0,0,0-.06,2.05,6.94,6.94,0,0,0,2.49,1.35c.26.09.37,0,.46-.25.15-.44.32-.87.48-1.3Zm-.59,5.39a9.67,9.67,0,0,0,.13,1.18c.21.95.68,1.23,1.62,1a6.26,6.26,0,0,0,2.49-1.51.51.51,0,0,0,0-.48,17.27,17.27,0,0,0-1.14-1.42,1.36,1.36,0,0,0-.66-.39c-.59-.12-1.2-.17-1.8-.27-.27,0-.4,0-.44.3C5.44,15.47,5.36,16,5.29,16.52ZM15.45,5.59c0-.38-.08-.72-.14-1.06a2.52,2.52,0,0,0-.13-.47,1,1,0,0,0-1.27-.66A6.2,6.2,0,0,0,11.22,5a.31.31,0,0,0,0,.5c.39.48.77,1,1.18,1.45a1,1,0,0,0,.5.31c.63.13,1.26.2,1.89.32.27,0,.4-.05.43-.3C15.3,6.7,15.37,6.13,15.45,5.59ZM5.27,5.46l.25,1.78c0,.27.17.37.46.31.64-.12,1.29-.19,1.93-.3A.76.76,0,0,0,8.28,7c.44-.52.87-1,1.28-1.59a.43.43,0,0,0,0-.41A5.65,5.65,0,0,0,6.62,3.4.85.85,0,0,0,5.55,4,11.11,11.11,0,0,0,5.27,5.46ZM15.48,16.63c-.07-.62-.13-1.12-.2-1.62,0-.35-.22-.48-.58-.42-.57.11-1.14.16-1.71.28a1,1,0,0,0-.56.29c-.43.49-.83,1-1.21,1.54a.38.38,0,0,0,0,.37A5.43,5.43,0,0,0,14,18.75a.9.9,0,0,0,1.15-.67A10.27,10.27,0,0,0,15.48,16.63ZM19.21,11a4.56,4.56,0,0,0-.45-.73A6,6,0,0,0,16,8.76c-.09,0-.3.11-.34.22-.26.6-.51,1.2-.73,1.82a.81.81,0,0,0,0,.51c.22.61.46,1.22.73,1.82.05.11.28.26.38.23a5.61,5.61,0,0,0,2.77-1.61A3.48,3.48,0,0,0,19.21,11Zm-5.89,2.81.06.12c.44-.08.88-.15,1.31-.25a.3.3,0,0,0,.14-.27c-.13-.43-.3-.85-.5-1.39Zm-6,.14.08-.14-1-1.75c-.2.55-.37,1-.5,1.39,0,.07.07.25.14.26C6.49,13.84,6.92,13.9,7.35,14Zm4.1-6.86L10.38,5.81,9.3,7.12Zm1.93,1.06-.07.11,1,1.76c.2-.53.36-.92.48-1.32a.36.36,0,0,0-.17-.31C14.22,8.32,13.8,8.26,13.38,8.18Zm-7,1.87L7.5,8.15c-.54.1-1,.16-1.37.26A.33.33,0,0,0,6,8.72C6.06,9.13,6.22,9.52,6.41,10.05Zm5,5H9.32c.36.42.64.76.94,1.08a.27.27,0,0,0,.26,0C10.82,15.83,11.09,15.48,11.44,15.06Z" transform="translate(-0.74 -2.51)"/><path class="cls-1" d="M10.34,12.78a1.74,1.74,0,0,1,.06-3.47,1.74,1.74,0,1,1-.06,3.47Z" transform="translate(-0.74 -2.51)"/></svg>